<svg version="1.1" viewBox="0.0 0.0 681.0 371.0" fill="none" stroke="none" stroke-linecap="square" stroke-miterlimit="10" width="681" height="371" xmlns:xlink="http://www.w3.org/1999/xlink" xmlns="http://www.w3.org/2000/svg"><path fill="#ffffff" d="M0 0L681.0 0L681.0 371.0L0 371.0L0 0Z" fill-rule="nonzero"/><path stroke="#cccccc" stroke-width="1.0" stroke-linecap="butt" d="M140.5 88.5L140.5 300.5" fill-rule="nonzero"/><path stroke="#cccccc" stroke-width="1.0" stroke-linecap="butt" d="M232.5 88.5L232.5 300.5" fill-rule="nonzero"/><path stroke="#cccccc" stroke-width="1.0" stroke-linecap="butt" d="M325.5 88.5L325.5 300.5" fill-rule="nonzero"/><path stroke="#cccccc" stroke-width="1.0" stroke-linecap="butt" d="M418.5 88.5L418.5 300.5" fill-rule="nonzero"/><path stroke="#cccccc" stroke-width="1.0" stroke-linecap="butt" d="M510.5 88.5L510.5 300.5" fill-rule="nonzero"/><path stroke="#cccccc" stroke-width="1.0" stroke-linecap="butt" d="M603.5 88.5L603.5 300.5" fill-rule="nonzero"/><path stroke="#333333" stroke-width="1.0" stroke-linecap="butt" d="M84.5 300.5L603.5 300.5" fill-rule="nonzero"/><path stroke="#cccccc" stroke-width="1.0" stroke-linecap="butt" d="M84.5 258.5L603.5 258.5" fill-rule="nonzero"/><path stroke="#cccccc" stroke-width="1.0" stroke-linecap="butt" d="M84.5 215.5L603.5 215.5" fill-rule="nonzero"/><path stroke="#cccccc" stroke-width="1.0" stroke-linecap="butt" d="M84.5 173.5L603.5 173.5" fill-rule="nonzero"/><path stroke="#cccccc" stroke-width="1.0" stroke-linecap="butt" d="M84.5 130.5L603.5 130.5" fill-rule="nonzero"/><path stroke="#cccccc" stroke-width="1.0" stroke-linecap="butt" d="M84.5 88.5L603.5 88.5" fill-rule="nonzero"/><clipPath id="id_0"><path d="M84.55 88.28333L603.45 88.28333L603.45 300.45L84.55 300.45L84.55 88.28333Z" clip-rule="nonzero"/></clipPath><path stroke="#4285f4" stroke-width="2.0" stroke-linecap="butt" clip-path="url(#id_0)" d="M84.55 300.45L103.082146 300.45L121.61429 300.45L140.14642 300.45L195.74286 299.88422L251.33928 291.39755L344.0 276.12155L418.12857 261.9771L510.78928 192.95222L603.45 105.82244" fill-rule="nonzero"/><path stroke="#ea4335" stroke-width="2.0" stroke-linecap="butt" clip-path="url(#id_0)" d="M84.55 287.72L103.082146 159.00555L121.61429 170.3211L140.14642 167.20934L195.74286 161.55156L251.33928 163.13573L344.0 150.51889L418.12857 138.07178L510.78928 131.84822L603.45 127.03911" fill-rule="nonzero"/><path fill="#000000" fill-opacity="0.0" clip-path="url(#id_0)" d="M87.55 300.45C87.55 302.10684 86.206856 303.45 84.55 303.45C82.89314 303.45 81.55 302.10684 81.55 300.45C81.55 298.79315 82.89314 297.45 84.55 297.45C86.206856 297.45 87.55 298.79315 87.55 300.45Z" fill-rule="nonzero"/><path fill="#000000" fill-opacity="0.0" clip-path="url(#id_0)" d="M106.082146 300.45C106.082146 302.10684 104.739 303.45 103.082146 303.45C101.425285 303.45 100.082146 302.10684 100.082146 300.45C100.082146 298.79315 101.425285 297.45 103.082146 297.45C104.739 297.45 106.082146 298.79315 106.082146 300.45Z" fill-rule="nonzero"/><path fill="#000000" fill-opacity="0.0" clip-path="url(#id_0)" d="M124.61429 300.45C124.61429 302.10684 123.27114 303.45 121.61429 303.45C119.95743 303.45 118.61429 302.10684 118.61429 300.45C118.61429 298.79315 119.95743 297.45 121.61429 297.45C123.27114 297.45 124.61429 298.79315 124.61429 300.45Z" fill-rule="nonzero"/><path fill="#000000" fill-opacity="0.0" clip-path="url(#id_0)" d="M143.14642 300.45C143.14642 302.10684 141.80328 303.45 140.14642 303.45C138.48958 303.45 137.14642 302.10684 137.14642 300.45C137.14642 298.79315 138.48958 297.45 140.14642 297.45C141.80328 297.45 143.14642 298.79315 143.14642 300.45Z" fill-rule="nonzero"/><path fill="#000000" fill-opacity="0.0" clip-path="url(#id_0)" d="M198.74286 299.88422C198.74286 301.54108 197.3997 302.88422 195.74286 302.88422C194.086 302.88422 192.74286 301.54108 192.74286 299.88422C192.74286 298.22736 194.086 296.88422 195.74286 296.88422C197.3997 296.88422 198.74286 298.22736 198.74286 299.88422Z" fill-rule="nonzero"/><path fill="#000000" fill-opacity="0.0" clip-path="url(#id_0)" d="M254.33928 291.39755C254.33928 293.0544 252.99614 294.39755 251.33928 294.39755C249.68243 294.39755 248.33928 293.0544 248.33928 291.39755C248.33928 289.7407 249.68243 288.39755 251.33928 288.39755C252.99614 288.39755 254.33928 289.7407 254.33928 291.39755Z" fill-rule="nonzero"/><path fill="#000000" fill-opacity="0.0" clip-path="url(#id_0)" d="M347.0 276.12155C347.0 277.7784 345.65686 279.12155 344.0 279.12155C342.34314 279.12155 341.0 277.7784 341.0 276.12155C341.0 274.4647 342.34314 273.12155 344.0 273.12155C345.65686 273.12155 347.0 274.4647 347.0 276.12155Z" fill-rule="nonzero"/><path fill="#000000" fill-opacity="0.0" clip-path="url(#id_0)" d="M421.12857 261.9771C421.12857 263.63397 419.78543 264.9771 418.12857 264.9771C416.4717 264.9771 415.12857 263.63397 415.12857 261.9771C415.12857 260.32025 416.4717 258.9771 418.12857 258.9771C419.78543 258.9771 421.12857 260.32025 421.12857 261.9771Z" fill-rule="nonzero"/><path fill="#000000" fill-opacity="0.0" clip-path="url(#id_0)" d="M513.7893 192.95222C513.7893 194.60907 512.44617 195.95222 510.78928 195.95222C509.13245 195.95222 507.78928 194.60907 507.78928 192.95222C507.78928 191.29536 509.13245 189.95222 510.78928 189.95222C512.44617 189.95222 513.7893 191.29536 513.7893 192.95222Z" fill-rule="nonzero"/><path fill="#000000" fill-opacity="0.0" clip-path="url(#id_0)" d="M606.45 105.82244C606.45 107.4793 605.1069 108.82244 603.45 108.82244C601.79315 108.82244 600.45 107.4793 600.45 105.82244C600.45 104.16559 601.79315 102.82244 603.45 102.82244C605.1069 102.82244 606.45 104.16559 606.45 105.82244Z" fill-rule="nonzero"/><path fill="#000000" fill-opacity="0.0" clip-path="url(#id_0)" d="M87.55 287.72C87.55 289.37686 86.206856 290.72 84.55 290.72C82.89314 290.72 81.55 289.37686 81.55 287.72C81.55 286.06314 82.89314 284.72 84.55 284.72C86.206856 284.72 87.55 286.06314 87.55 287.72Z" fill-rule="nonzero"/><path fill="#000000" fill-opacity="0.0" clip-path="url(#id_0)" d="M106.082146 159.00555C106.082146 160.66241 104.739 162.00555 103.082146 162.00555C101.425285 162.00555 100.082146 160.66241 100.082146 159.00555C100.082146 157.3487 101.425285 156.00555 103.082146 156.00555C104.739 156.00555 106.082146 157.3487 106.082146 159.00555Z" fill-rule="nonzero"/><path fill="#000000" fill-opacity="0.0" clip-path="url(#id_0)" d="M124.61429 170.3211C124.61429 171.97797 123.27114 173.3211 121.61429 173.3211C119.95743 173.3211 118.61429 171.97797 118.61429 170.3211C118.61429 168.66426 119.95743 167.3211 121.61429 167.3211C123.27114 167.3211 124.61429 168.66426 124.61429 170.3211Z" fill-rule="nonzero"/><path fill="#000000" fill-opacity="0.0" clip-path="url(#id_0)" d="M143.14642 167.20934C143.14642 168.86618 141.80328 170.20934 140.14642 170.20934C138.48958 170.20934 137.14642 168.86618 137.14642 167.20934C137.14642 165.55247 138.48958 164.20934 140.14642 164.20934C141.80328 164.20934 143.14642 165.55247 143.14642 167.20934Z" fill-rule="nonzero"/><path fill="#000000" fill-opacity="0.0" clip-path="url(#id_0)" d="M198.74286 161.55156C198.74286 163.2084 197.3997 164.55156 195.74286 164.55156C194.086 164.55156 192.74286 163.2084 192.74286 161.55156C192.74286 159.8947 194.086 158.55156 195.74286 158.55156C197.3997 158.55156 198.74286 159.8947 198.74286 161.55156Z" fill-rule="nonzero"/><path fill="#000000" fill-opacity="0.0" clip-path="url(#id_0)" d="M254.33928 163.13573C254.33928 164.79259 252.99614 166.13573 251.33928 166.13573C249.68243 166.13573 248.33928 164.79259 248.33928 163.13573C248.33928 161.47888 249.68243 160.13573 251.33928 160.13573C252.99614 160.13573 254.33928 161.47888 254.33928 163.13573Z" fill-rule="nonzero"/><path fill="#000000" fill-opacity="0.0" clip-path="url(#id_0)" d="M347.0 150.51889C347.0 152.17575 345.65686 153.51889 344.0 153.51889C342.34314 153.51889 341.0 152.17575 341.0 150.51889C341.0 148.86203 342.34314 147.51889 344.0 147.51889C345.65686 147.51889 347.0 148.86203 347.0 150.51889Z" fill-rule="nonzero"/><path fill="#000000" fill-opacity="0.0" clip-path="url(#id_0)" d="M421.12857 138.07178C421.12857 139.72864 419.78543 141.07178 418.12857 141.07178C416.4717 141.07178 415.12857 139.72864 415.12857 138.07178C415.12857 136.41492 416.4717 135.07178 418.12857 135.07178C419.78543 135.07178 421.12857 136.41492 421.12857 138.07178Z" fill-rule="nonzero"/><path fill="#000000" fill-opacity="0.0" clip-path="url(#id_0)" d="M513.7893 131.84822C513.7893 133.50508 512.44617 134.84822 510.78928 134.84822C509.13245 134.84822 507.78928 133.50508 507.78928 131.84822C507.78928 130.19136 509.13245 128.84822 510.78928 128.84822C512.44617 128.84822 513.7893 130.19136 513.7893 131.84822Z" fill-rule="nonzero"/><path fill="#000000" fill-opacity="0.0" clip-path="url(#id_0)" d="M606.45 127.03911C606.45 128.69597 605.1069 130.03911 603.45 130.03911C601.79315 130.03911 600.45 128.69597 600.45 127.03911C600.45 125.382256 601.79315 124.03911 603.45 124.03911C605.1069 124.03911 606.45 125.382256 606.45 127.03911Z" fill-rule="nonzero"/><path fill="#000000" d="M327.60938 349.45L327.60938 341.8719L324.78125 341.8719L324.78125 340.85626L331.59375 340.85626L331.59375 341.8719L328.75 341.8719L328.75 349.45L327.60938 349.45ZM332.28125 349.45L332.28125 343.23126L333.23438 343.23126L333.23438 344.16876Q333.59375 343.5125 333.89062 343.3094Q334.20312 343.09064 334.57812 343.09064Q335.10938 343.09064 335.65625 343.41876L335.29688 344.40314Q334.90625 344.16876 334.53125 344.16876Q334.17188 344.16876 333.89062 344.3875Q333.625 344.59064 333.51562 344.96564Q333.32812 345.52814 333.32812 346.1844L333.32812 349.45L332.28125 349.45ZM340.54688 347.45L341.64062 347.575Q341.39062 348.52814 340.6875 349.0594Q339.98438 349.59064 338.90625 349.59064Q337.54688 349.59064 336.73438 348.7469Q335.9375 347.90314 335.9375 346.3875Q335.9375 344.825 336.75 343.96564Q337.5625 343.09064 338.84375 343.09064Q340.09375 343.09064 340.875 343.9344Q341.67188 344.77814 341.67188 346.325Q341.67188 346.41876 341.67188 346.60626L337.03125 346.60626Q337.09375 347.6375 337.60938 348.1844Q338.125 348.71564 338.90625 348.71564Q339.48438 348.71564 339.89062 348.41876Q340.3125 348.10626 340.54688 347.45ZM337.09375 345.7469L340.5625 345.7469Q340.5 344.95 340.17188 344.5594Q339.65625 343.95 338.85938 343.95Q338.125 343.95 337.625 344.4344Q337.14062 344.91876 337.09375 345.7469ZM347.35938 348.6844Q346.76562 349.1844 346.21875 349.3875Q345.6875 349.59064 345.0625 349.59064Q344.03125 349.59064 343.48438 349.09064Q342.9375 348.59064 342.9375 347.8094Q342.9375 347.35626 343.14062 346.98126Q343.34375 346.59064 343.6875 346.3719Q344.03125 346.1375 344.45312 346.02814Q344.75 345.9344 345.39062 345.85626Q346.65625 345.71564 347.26562 345.4969Q347.26562 345.27814 347.26562 345.23126Q347.26562 344.575 346.96875 344.3094Q346.5625 343.96564 345.76562 343.96564Q345.03125 343.96564 344.67188 344.23126Q344.3125 344.48126 344.14062 345.1375L343.10938 344.9969Q343.25 344.34064 343.57812 343.9344Q343.90625 343.52814 344.51562 343.3094Q345.125 343.09064 345.92188 343.09064Q346.71875 343.09064 347.21875 343.27814Q347.71875 343.46564 347.95312 343.7469Q348.1875 344.02814 348.28125 344.46564Q348.32812 344.73126 348.32812 345.4344L348.32812 346.84064Q348.32812 348.3094 348.39062 348.7Q348.46875 349.09064 348.67188 349.45L347.5625 349.45Q347.40625 349.1219 347.35938 348.6844ZM347.26562 346.325Q346.6875 346.5594 345.54688 346.73126Q344.89062 346.825 344.625 346.95Q344.35938 347.0594 344.20312 347.27814Q344.0625 347.4969 344.0625 347.77814Q344.0625 348.2 344.375 348.48126Q344.70312 348.7625 345.3125 348.7625Q345.92188 348.7625 346.39062 348.4969Q346.875 348.23126 347.09375 347.7625Q347.26562 347.40314 347.26562 346.71564L347.26562 346.325ZM354.32812 349.45L354.32812 348.66876Q353.73438 349.59064 352.59375 349.59064Q351.84375 349.59064 351.21875 349.1844Q350.59375 348.7625 350.25 348.02814Q349.90625 347.29376 349.90625 346.34064Q349.90625 345.41876 350.21875 344.65314Q350.53125 343.8875 351.15625 343.4969Q351.78125 343.09064 352.54688 343.09064Q353.10938 343.09064 353.54688 343.325Q353.98438 343.5594 354.26562 343.9344L354.26562 340.85626L355.3125 340.85626L355.3125 349.45L354.32812 349.45ZM351.0 346.34064Q351.0 347.54376 351.5 348.1375Q352.0 348.71564 352.6875 348.71564Q353.375 348.71564 353.85938 348.15314Q354.34375 347.59064 354.34375 346.4344Q354.34375 345.15314 353.84375 344.5594Q353.35938 343.96564 352.64062 343.96564Q351.9375 343.96564 351.46875 344.54376Q351.0 345.10626 351.0 346.34064ZM356.875 347.59064L357.90625 347.4344Q358.0 348.0594 358.39062 348.3875Q358.79688 348.71564 359.53125 348.71564Q360.25 348.71564 360.59375 348.4344Q360.95312 348.1375 360.95312 347.73126Q360.95312 347.3719 360.64062 347.16876Q360.42188 347.02814 359.5625 346.8094Q358.40625 346.5125 357.95312 346.3094Q357.51562 346.09064 357.28125 345.71564Q357.04688 345.34064 357.04688 344.8719Q357.04688 344.46564 357.23438 344.10626Q357.42188 343.7469 357.75 343.5125Q358.0 343.34064 358.42188 343.21564Q358.84375 343.09064 359.34375 343.09064Q360.0625 343.09064 360.60938 343.3094Q361.17188 343.5125 361.4375 343.8719Q361.70312 344.23126 361.79688 344.825L360.76562 344.96564Q360.70312 344.4969 360.35938 344.23126Q360.03125 343.95 359.40625 343.95Q358.6875 343.95 358.375 344.2Q358.0625 344.4344 358.0625 344.7625Q358.0625 344.96564 358.1875 345.1219Q358.32812 345.29376 358.59375 345.40314Q358.75 345.46564 359.53125 345.66876Q360.65625 345.98126 361.09375 346.16876Q361.53125 346.35626 361.78125 346.71564Q362.03125 347.075 362.03125 347.6219Q362.03125 348.15314 361.71875 348.6219Q361.42188 349.075 360.84375 349.34064Q360.26562 349.59064 359.53125 349.59064Q358.3125 349.59064 357.67188 349.09064Q357.04688 348.575 356.875 347.59064Z" fill-rule="nonzero"/><path fill="#000000" d="M28.628138 205.92917Q29.175013 205.1323 29.425013 204.47604L30.221888 204.80417Q29.878138 205.72604 29.159388 206.64792Q29.690638 207.60104 29.690638 208.7573Q29.690638 209.92917 29.128138 210.8823Q28.565638 211.8198 27.550013 212.33542Q26.534388 212.85104 25.253138 212.85104Q23.987513 212.85104 22.940638 212.33542Q21.893763 211.8198 21.346888 210.86667Q20.800013 209.91354 20.800013 208.74167Q20.800013 207.55417 21.378138 206.60104Q21.940638 205.6323 22.956263 205.1323Q23.971888 204.6323 25.253138 204.6323Q26.315638 204.6323 27.159388 204.96042Q28.003138 205.27292 28.628138 205.92917ZM27.175013 208.42917Q27.456263 207.4448 28.003138 206.80417Q27.081263 205.80417 25.253138 205.80417Q24.206263 205.80417 23.425013 206.16354Q22.643763 206.52292 22.221888 207.21042Q21.784388 207.8823 21.784388 208.72604Q21.784388 210.0073 22.659388 210.85104Q23.518763 211.67917 25.253138 211.67917Q26.925013 211.67917 27.831263 210.85104Q28.721888 210.02292 28.721888 208.72604Q28.721888 208.11667 28.487513 207.58542Q28.143763 208.11667 28.003138 208.71042L27.175013 208.42917ZM29.550013 203.4448L20.956263 203.4448L20.956263 200.1948Q20.956263 199.35104 21.034388 198.89792Q21.143763 198.2573 21.440638 197.83542Q21.737513 197.39792 22.268763 197.14792Q22.800013 196.8823 23.440638 196.8823Q24.534388 196.8823 25.300013 197.58542Q26.050013 198.27292 26.050013 200.10104L26.050013 202.30417L29.550013 202.30417L29.550013 203.4448ZM25.050013 202.30417L25.050013 200.08542Q25.050013 198.97604 24.643763 198.52292Q24.221888 198.05417 23.471888 198.05417Q22.940638 198.05417 22.565638 198.33542Q22.175013 198.60104 22.050013 199.03854Q21.971888 199.33542 21.971888 200.10104L21.971888 202.30417L25.050013 202.30417ZM26.784388 195.8198L26.690638 194.7573Q27.346888 194.67917 27.753138 194.39792Q28.159388 194.11667 28.425013 193.53854Q28.675013 192.9448 28.675013 192.21042Q28.675013 191.5698 28.487513 191.0698Q28.284388 190.5698 27.956263 190.33542Q27.612513 190.08542 27.221888 190.08542Q26.815638 190.08542 26.518763 190.3198Q26.206263 190.55417 26.003138 191.08542Q25.862513 191.4448 25.581263 192.6323Q25.300013 193.80417 25.050013 194.27292Q24.721888 194.89792 24.253138 195.1948Q23.768763 195.49167 23.175013 195.49167Q22.534388 195.49167 21.971888 195.1323Q21.393763 194.7573 21.112513 194.05417Q20.815638 193.33542 20.815638 192.47604Q20.815638 191.52292 21.128138 190.78854Q21.425013 190.05417 22.034388 189.66354Q22.628138 189.27292 23.378138 189.24167L23.456263 190.33542Q22.643763 190.42917 22.237513 190.9448Q21.815638 191.4448 21.815638 192.42917Q21.815638 193.46042 22.190638 193.92917Q22.565638 194.39792 23.096888 194.39792Q23.565638 194.39792 23.862513 194.0698Q24.159388 193.74167 24.471888 192.36667Q24.784388 190.97604 25.018763 190.46042Q25.378138 189.71042 25.909388 189.35104Q26.425013 188.99167 27.128138 188.99167Q27.815638 188.99167 28.425013 189.3823Q29.018763 189.77292 29.362513 190.5073Q29.690638 191.24167 29.690638 192.16354Q29.690638 193.33542 29.362513 194.1323Q29.018763 194.91354 28.331263 195.36667Q27.643763 195.80417 26.784388 195.8198Z" fill-rule="nonzero"/><path fill="#000000" d="M659.45 254.7573L651.8719 254.7573L651.8719 257.58542L650.85626 257.58542L650.85626 250.77292L651.8719 250.77292L651.8719 253.61667L659.45 253.61667L659.45 254.7573ZM659.45 250.0698L650.85626 250.0698L650.85626 249.02292L653.9344 249.02292Q653.09064 248.28854 653.09064 247.16354Q653.09064 246.46042 653.3719 245.96042Q653.6375 245.4448 654.1219 245.22604Q654.59064 245.0073 655.5125 245.0073L659.45 245.0073L659.45 246.05417L655.5125 246.05417Q654.71564 246.05417 654.35626 246.39792Q653.9969 246.74167 653.9969 247.36667Q653.9969 247.83542 654.2469 248.2573Q654.48126 248.66354 654.90314 248.85104Q655.3094 249.02292 656.04376 249.02292L659.45 249.02292L659.45 250.0698ZM659.45 243.08542L653.23126 243.08542L653.23126 242.1323L654.16876 242.1323Q653.5125 241.77292 653.3094 241.47604Q653.09064 241.16354 653.09064 240.78854Q653.09064 240.2573 653.41876 239.71042L654.40314 240.0698Q654.16876 240.46042 654.16876 240.83542Q654.16876 241.1948 654.3875 241.47604Q654.59064 241.74167 654.96564 241.85104Q655.52814 242.03854 656.1844 242.03854L659.45 242.03854L659.45 243.08542ZM657.45 234.8198L657.575 233.72604Q658.52814 233.97604 659.0594 234.67917Q659.59064 235.3823 659.59064 236.46042Q659.59064 237.8198 658.7469 238.6323Q657.90314 239.42917 656.3875 239.42917Q654.825 239.42917 653.96564 238.61667Q653.09064 237.80417 653.09064 236.52292Q653.09064 235.27292 653.9344 234.49167Q654.77814 233.6948 656.325 233.6948Q656.41876 233.6948 656.60626 233.6948L656.60626 238.33542Q657.6375 238.27292 658.1844 237.7573Q658.71564 237.24167 658.71564 236.46042Q658.71564 235.8823 658.41876 235.47604Q658.10626 235.05417 657.45 234.8198ZM655.7469 238.27292L655.7469 234.80417Q654.95 234.86667 654.5594 235.1948Q653.95 235.71042 653.95 236.5073Q653.95 237.24167 654.4344 237.74167Q654.91876 238.22604 655.7469 238.27292ZM658.6844 228.0073Q659.1844 228.60104 659.3875 229.14792Q659.59064 229.67917 659.59064 230.30417Q659.59064 231.33542 659.09064 231.8823Q658.59064 232.42917 657.8094 232.42917Q657.35626 232.42917 656.98126 232.22604Q656.59064 232.02292 656.3719 231.67917Q656.1375 231.33542 656.02814 230.91354Q655.9344 230.61667 655.85626 229.97604Q655.71564 228.71042 655.4969 228.10104Q655.27814 228.10104 655.23126 228.10104Q654.575 228.10104 654.3094 228.39792Q653.96564 228.80417 653.96564 229.60104Q653.96564 230.33542 654.23126 230.6948Q654.48126 231.05417 655.1375 231.22604L654.9969 232.2573Q654.34064 232.11667 653.9344 231.78854Q653.52814 231.46042 653.3094 230.85104Q653.09064 230.24167 653.09064 229.4448Q653.09064 228.64792 653.27814 228.14792Q653.46564 227.64792 653.7469 227.41354Q654.02814 227.17917 654.46564 227.08542Q654.73126 227.03854 655.4344 227.03854L656.84064 227.03854Q658.3094 227.03854 658.7 226.97604Q659.09064 226.89792 659.45 226.6948L659.45 227.80417Q659.1219 227.96042 658.6844 228.0073ZM656.325 228.10104Q656.5594 228.67917 656.73126 229.8198Q656.825 230.47604 656.95 230.74167Q657.0594 231.0073 657.27814 231.16354Q657.4969 231.30417 657.77814 231.30417Q658.2 231.30417 658.48126 230.99167Q658.7625 230.66354 658.7625 230.05417Q658.7625 229.4448 658.4969 228.97604Q658.23126 228.49167 657.7625 228.27292Q657.40314 228.10104 656.71564 228.10104L656.325 228.10104ZM659.45 221.03854L658.66876 221.03854Q659.59064 221.6323 659.59064 222.77292Q659.59064 223.52292 659.1844 224.14792Q658.7625 224.77292 658.02814 225.11667Q657.29376 225.46042 656.34064 225.46042Q655.41876 225.46042 654.65314 225.14792Q653.8875 224.83542 653.4969 224.21042Q653.09064 223.58542 653.09064 222.8198Q653.09064 222.2573 653.325 221.8198Q653.5594 221.3823 653.9344 221.10104L650.85626 221.10104L650.85626 220.05417L659.45 220.05417L659.45 221.03854ZM656.34064 224.36667Q657.54376 224.36667 658.1375 223.86667Q658.71564 223.36667 658.71564 222.67917Q658.71564 221.99167 658.15314 221.5073Q657.59064 221.02292 656.4344 221.02292Q655.15314 221.02292 654.5594 221.52292Q653.96564 222.0073 653.96564 222.72604Q653.96564 223.42917 654.54376 223.89792Q655.10626 224.36667 656.34064 224.36667ZM659.45 215.0698L653.23126 215.0698L653.23126 214.1323L654.10626 214.1323Q653.6375 213.83542 653.3719 213.35104Q653.09064 212.86667 653.09064 212.24167Q653.09064 211.55417 653.3719 211.11667Q653.65314 210.66354 654.16876 210.49167Q653.09064 209.74167 653.09064 208.5698Q653.09064 207.6323 653.60626 207.14792Q654.10626 206.64792 655.1844 206.64792L659.45 206.64792L659.45 207.6948L655.52814 207.6948Q654.90314 207.6948 654.6219 207.80417Q654.34064 207.89792 654.16876 208.16354Q653.9969 208.42917 653.9969 208.80417Q653.9969 209.46042 654.4344 209.89792Q654.8719 210.3198 655.84064 210.3198L659.45 210.3198L659.45 211.3823L655.40314 211.3823Q654.7 211.3823 654.35626 211.64792Q653.9969 211.89792 653.9969 212.47604Q653.9969 212.92917 654.23126 213.30417Q654.46564 213.67917 654.91876 213.85104Q655.3719 214.02292 656.21564 214.02292L659.45 214.02292L659.45 215.0698ZM652.075 204.0698L650.85626 204.0698L650.85626 203.0073L652.075 203.0073L652.075 204.0698ZM659.45 204.0698L653.23126 204.0698L653.23126 203.0073L659.45 203.0073L659.45 204.0698ZM659.96564 201.27292L660.1219 200.24167Q660.59064 200.17917 660.8094 199.8823Q661.10626 199.49167 661.10626 198.8198Q661.10626 198.08542 660.8094 197.6948Q660.5125 197.28854 659.9969 197.14792Q659.66876 197.05417 658.6375 197.0698Q659.45 197.7573 659.45 198.78854Q659.45 200.0698 658.52814 200.77292Q657.59064 201.47604 656.3094 201.47604Q655.41876 201.47604 654.66876 201.16354Q653.90314 200.83542 653.4969 200.22604Q653.09064 199.61667 653.09064 198.78854Q653.09064 197.67917 653.98126 196.96042L653.23126 196.96042L653.23126 195.99167L658.60626 195.99167Q660.0594 195.99167 660.66876 196.28854Q661.27814 196.58542 661.6219 197.22604Q661.98126 197.86667 661.98126 198.80417Q661.98126 199.91354 661.48126 200.60104Q660.98126 201.28854 659.96564 201.27292ZM656.23126 200.39792Q657.45 200.39792 658.0125 199.91354Q658.575 199.42917 658.575 198.6948Q658.575 197.96042 658.0125 197.47604Q657.45 196.97604 656.2625 196.97604Q655.1219 196.97604 654.54376 197.49167Q653.96564 197.99167 653.96564 198.71042Q653.96564 199.41354 654.54376 199.91354Q655.10626 200.39792 656.23126 200.39792ZM659.45 194.08542L653.23126 194.08542L653.23126 193.1323L654.16876 193.1323Q653.5125 192.77292 653.3094 192.47604Q653.09064 192.16354 653.09064 191.78854Q653.09064 191.2573 653.41876 190.71042L654.40314 191.0698Q654.16876 191.46042 654.16876 191.83542Q654.16876 192.1948 654.3875 192.47604Q654.59064 192.74167 654.96564 192.85104Q655.52814 193.03854 656.1844 193.03854L659.45 193.03854L659.45 194.08542ZM658.6844 186.0073Q659.1844 186.60104 659.3875 187.14792Q659.59064 187.67917 659.59064 188.30417Q659.59064 189.33542 659.09064 189.8823Q658.59064 190.42917 657.8094 190.42917Q657.35626 190.42917 656.98126 190.22604Q656.59064 190.02292 656.3719 189.67917Q656.1375 189.33542 656.02814 188.91354Q655.9344 188.61667 655.85626 187.97604Q655.71564 186.71042 655.4969 186.10104Q655.27814 186.10104 655.23126 186.10104Q654.575 186.10104 654.3094 186.39792Q653.96564 186.80417 653.96564 187.60104Q653.96564 188.33542 654.23126 188.6948Q654.48126 189.05417 655.1375 189.22604L654.9969 190.2573Q654.34064 190.11667 653.9344 189.78854Q653.52814 189.46042 653.3094 188.85104Q653.09064 188.24167 653.09064 187.4448Q653.09064 186.64792 653.27814 186.14792Q653.46564 185.64792 653.7469 185.41354Q654.02814 185.17917 654.46564 185.08542Q654.73126 185.03854 655.4344 185.03854L656.84064 185.03854Q658.3094 185.03854 658.7 184.97604Q659.09064 184.89792 659.45 184.6948L659.45 185.80417Q659.1219 185.96042 658.6844 186.0073ZM656.325 186.10104Q656.5594 186.67917 656.73126 187.8198Q656.825 188.47604 656.95 188.74167Q657.0594 189.0073 657.27814 189.16354Q657.4969 189.30417 657.77814 189.30417Q658.2 189.30417 658.48126 188.99167Q658.7625 188.66354 658.7625 188.05417Q658.7625 187.4448 658.4969 186.97604Q658.23126 186.49167 657.7625 186.27292Q657.40314 186.10104 656.71564 186.10104L656.325 186.10104ZM658.5125 180.77292L659.4344 180.61667Q659.52814 181.0698 659.52814 181.41354Q659.52814 181.99167 659.35626 182.30417Q659.16876 182.61667 658.8719 182.7573Q658.575 182.8823 657.6219 182.8823L654.04376 182.8823L654.04376 183.64792L653.23126 183.64792L653.23126 182.8823L651.6844 182.8823L651.0594 181.83542L653.23126 181.83542L653.23126 180.77292L654.04376 180.77292L654.04376 181.83542L657.6844 181.83542Q658.1375 181.83542 658.2625 181.78854Q658.3875 181.72604 658.46564 181.60104Q658.54376 181.47604 658.54376 181.24167Q658.54376 181.05417 658.5125 180.77292ZM652.075 180.0698L650.85626 180.0698L650.85626 179.0073L652.075 179.0073L652.075 180.0698ZM659.45 180.0698L653.23126 180.0698L653.23126 179.0073L659.45 179.0073L659.45 180.0698ZM656.34064 177.46042Q654.60626 177.46042 653.77814 176.5073Q653.09064 175.71042 653.09064 174.55417Q653.09064 173.27292 653.9344 172.46042Q654.7625 171.6323 656.2469 171.6323Q657.45 171.6323 658.1375 171.99167Q658.825 172.35104 659.21564 173.05417Q659.59064 173.74167 659.59064 174.55417Q659.59064 175.85104 658.7625 176.66354Q657.91876 177.46042 656.34064 177.46042ZM656.34064 176.3823Q657.52814 176.3823 658.1219 175.86667Q658.71564 175.33542 658.71564 174.55417Q658.71564 173.7573 658.1219 173.24167Q657.52814 172.72604 656.3094 172.72604Q655.15314 172.72604 654.5594 173.2573Q653.96564 173.77292 653.96564 174.55417Q653.96564 175.33542 654.5594 175.86667Q655.1375 176.3823 656.34064 176.3823ZM659.45 170.0698L653.23126 170.0698L653.23126 169.1323L654.10626 169.1323Q653.09064 168.4448 653.09064 167.14792Q653.09064 166.58542 653.29376 166.11667Q653.4969 165.6323 653.825 165.39792Q654.15314 165.16354 654.59064 165.0698Q654.8875 165.02292 655.6219 165.02292L659.45 165.02292L659.45 166.0698L655.66876 166.0698Q655.0125 166.0698 654.7 166.1948Q654.3875 166.3198 654.2 166.6323Q653.9969 166.9448 653.9969 167.36667Q653.9969 168.03854 654.4344 168.53854Q654.85626 169.02292 656.04376 169.02292L659.45 169.02292L659.45 170.0698ZM657.59064 163.49167L657.4344 162.46042Q658.0594 162.36667 658.3875 161.97604Q658.71564 161.5698 658.71564 160.83542Q658.71564 160.11667 658.4344 159.77292Q658.1375 159.41354 657.73126 159.41354Q657.3719 159.41354 657.16876 159.72604Q657.02814 159.9448 656.8094 160.80417Q656.5125 161.96042 656.3094 162.41354Q656.09064 162.85104 655.71564 163.08542Q655.34064 163.3198 654.8719 163.3198Q654.46564 163.3198 654.10626 163.1323Q653.7469 162.9448 653.5125 162.61667Q653.34064 162.36667 653.21564 161.9448Q653.09064 161.52292 653.09064 161.02292Q653.09064 160.30417 653.3094 159.7573Q653.5125 159.1948 653.8719 158.92917Q654.23126 158.66354 654.825 158.5698L654.96564 159.60104Q654.4969 159.66354 654.23126 160.0073Q653.95 160.33542 653.95 160.96042Q653.95 161.67917 654.2 161.99167Q654.4344 162.30417 654.7625 162.30417Q654.96564 162.30417 655.1219 162.17917Q655.29376 162.03854 655.40314 161.77292Q655.46564 161.61667 655.66876 160.83542Q655.98126 159.71042 656.16876 159.27292Q656.35626 158.83542 656.71564 158.58542Q657.075 158.33542 657.6219 158.33542Q658.15314 158.33542 658.6219 158.64792Q659.075 158.9448 659.34064 159.52292Q659.59064 160.10104 659.59064 160.83542Q659.59064 162.05417 659.09064 162.6948Q658.575 163.3198 657.59064 163.49167ZM659.59064 153.86667L650.71564 151.3823L650.71564 150.53854L659.59064 153.02292L659.59064 153.86667ZM657.59064 150.49167L657.4344 149.46042Q658.0594 149.36667 658.3875 148.97604Q658.71564 148.5698 658.71564 147.83542Q658.71564 147.11667 658.4344 146.77292Q658.1375 146.41354 657.73126 146.41354Q657.3719 146.41354 657.16876 146.72604Q657.02814 146.9448 656.8094 147.80417Q656.5125 148.96042 656.3094 149.41354Q656.09064 149.85104 655.71564 150.08542Q655.34064 150.3198 654.8719 150.3198Q654.46564 150.3198 654.10626 150.1323Q653.7469 149.9448 653.5125 149.61667Q653.34064 149.36667 653.21564 148.9448Q653.09064 148.52292 653.09064 148.02292Q653.09064 147.30417 653.3094 146.7573Q653.5125 146.1948 653.8719 145.92917Q654.23126 145.66354 654.825 145.5698L654.96564 146.60104Q654.4969 146.66354 654.23126 147.0073Q653.95 147.33542 653.95 147.96042Q653.95 148.67917 654.2 148.99167Q654.4344 149.30417 654.7625 149.30417Q654.96564 149.30417 655.1219 149.17917Q655.29376 149.03854 655.40314 148.77292Q655.46564 148.61667 655.66876 147.83542Q655.98126 146.71042 656.16876 146.27292Q656.35626 145.83542 656.71564 145.58542Q657.075 145.33542 657.6219 145.33542Q658.15314 145.33542 658.6219 145.64792Q659.075 145.9448 659.34064 146.52292Q659.59064 147.10104 659.59064 147.83542Q659.59064 149.05417 659.09064 149.6948Q658.575 150.3198 657.59064 150.49167Z" fill-rule="nonzero"/><path fill="#000000" d="M72.05 300.21564Q72.05 298.6844 72.3625 297.7625Q72.675 296.825 73.28438 296.325Q73.90938 295.825 74.84688 295.825Q75.53438 295.825 76.05 296.10626Q76.58125 296.3875 76.925 296.91876Q77.26875 297.4344 77.45625 298.1844Q77.64375 298.9344 77.64375 300.21564Q77.64375 301.73126 77.33125 302.65314Q77.03438 303.575 76.40938 304.09064Q75.8 304.59064 74.84688 304.59064Q73.6125 304.59064 72.89375 303.7Q72.05 302.6375 72.05 300.21564ZM73.12813 300.21564Q73.12813 302.325 73.62813 303.02814Q74.12813 303.73126 74.84688 303.73126Q75.58125 303.73126 76.06563 303.02814Q76.56563 302.325 76.56563 300.21564Q76.56563 298.09064 76.06563 297.40314Q75.58125 296.7 74.83125 296.7Q74.1125 296.7 73.675 297.3094Q73.12813 298.09064 73.12813 300.21564Z" fill-rule="nonzero"/><path fill="#000000" d="M58.05 259.76666L59.159374 259.6729Q59.284374 260.4854 59.721874 260.89166Q60.175 261.2979 60.815624 261.2979Q61.565624 261.2979 62.096874 260.7198Q62.628124 260.14166 62.628124 259.20416Q62.628124 258.2979 62.1125 257.7823Q61.6125 257.25104 60.784374 257.25104Q60.284374 257.25104 59.8625 257.4854Q59.45625 257.7198 59.221874 258.07916L58.2375 257.95416L59.065624 253.54791L63.346874 253.54791L63.346874 254.54791L59.909374 254.54791L59.45625 256.8604Q60.221874 256.31354 61.065624 256.31354Q62.190624 256.31354 62.95625 257.0948Q63.7375 257.87604 63.7375 259.1104Q63.7375 260.26666 63.065624 261.12604Q62.2375 262.1573 60.815624 262.1573Q59.64375 262.1573 58.89375 261.50104Q58.159374 260.8448 58.05 259.76666ZM65.05 257.7823Q65.05 256.25104 65.3625 255.32916Q65.675 254.39166 66.28438 253.89166Q66.90938 253.39166 67.84688 253.39166Q68.53438 253.39166 69.05 253.67291Q69.58125 253.95416 69.925 254.48541Q70.26875 255.00104 70.45625 255.75104Q70.64375 256.50104 70.64375 257.7823Q70.64375 259.2979 70.33125 260.2198Q70.03438 261.14166 69.40938 261.6573Q68.8 262.1573 67.84688 262.1573Q66.6125 262.1573 65.89375 261.26666Q65.05 260.20416 65.05 257.7823ZM66.12813 257.7823Q66.12813 259.89166 66.62813 260.5948Q67.12813 261.2979 67.84688 261.2979Q68.58125 261.2979 69.06563 260.5948Q69.56563 259.89166 69.56563 257.7823Q69.56563 255.65729 69.06563 254.96979Q68.58125 254.26666 67.83125 254.26666Q67.1125 254.26666 66.675 254.87604Q66.12813 255.65729 66.12813 257.7823ZM72.05 257.7823Q72.05 256.25104 72.3625 255.32916Q72.675 254.39166 73.28438 253.89166Q73.90938 253.39166 74.84688 253.39166Q75.53438 253.39166 76.05 253.67291Q76.58125 253.95416 76.925 254.48541Q77.26875 255.00104 77.45625 255.75104Q77.64375 256.50104 77.64375 257.7823Q77.64375 259.2979 77.33125 260.2198Q77.03438 261.14166 76.40938 261.6573Q75.8 262.1573 74.84688 262.1573Q73.6125 262.1573 72.89375 261.26666Q72.05 260.20416 72.05 257.7823ZM73.12813 257.7823Q73.12813 259.89166 73.62813 260.5948Q74.12813 261.2979 74.84688 261.2979Q75.58125 261.2979 76.06563 260.5948Q76.56563 259.89166 76.56563 257.7823Q76.56563 255.65729 76.06563 254.96979Q75.58125 254.26666 74.83125 254.26666Q74.1125 254.26666 73.675 254.87604Q73.12813 255.65729 73.12813 257.7823Z" fill-rule="nonzero"/><path fill="#000000" d="M55.01875 219.58333L53.971874 219.58333L53.971874 212.86458Q53.58125 213.22395 52.95625 213.59895Q52.346874 213.95833 51.8625 214.1302L51.8625 213.11458Q52.7375 212.6927 53.39375 212.11458Q54.065624 211.52083 54.346874 210.95833L55.01875 210.95833L55.01875 219.58333ZM58.05 215.34895Q58.05 213.8177 58.3625 212.89583Q58.675 211.95833 59.284374 211.45833Q59.909374 210.95833 60.846874 210.95833Q61.534374 210.95833 62.05 211.23958Q62.58125 211.52083 62.925 212.05208Q63.26875 212.5677 63.45625 213.3177Q63.64375 214.0677 63.64375 215.34895Q63.64375 216.86458 63.33125 217.78645Q63.034374 218.70833 62.409374 219.22395Q61.8 219.72395 60.846874 219.72395Q59.6125 219.72395 58.89375 218.83333Q58.05 217.77083 58.05 215.34895ZM59.128124 215.34895Q59.128124 217.45833 59.628124 218.16145Q60.128124 218.86458 60.846874 218.86458Q61.58125 218.86458 62.065624 218.16145Q62.565624 217.45833 62.565624 215.34895Q62.565624 213.22395 62.065624 212.53645Q61.58125 211.83333 60.83125 211.83333Q60.1125 211.83333 59.675 212.4427Q59.128124 213.22395 59.128124 215.34895ZM65.05 215.34895Q65.05 213.8177 65.3625 212.89583Q65.675 211.95833 66.28438 211.45833Q66.90938 210.95833 67.84688 210.95833Q68.53438 210.95833 69.05 211.23958Q69.58125 211.52083 69.925 212.05208Q70.26875 212.5677 70.45625 213.3177Q70.64375 214.0677 70.64375 215.34895Q70.64375 216.86458 70.33125 217.78645Q70.03438 218.70833 69.40938 219.22395Q68.8 219.72395 67.84688 219.72395Q66.6125 219.72395 65.89375 218.83333Q65.05 217.77083 65.05 215.34895ZM66.12813 215.34895Q66.12813 217.45833 66.62813 218.16145Q67.12813 218.86458 67.84688 218.86458Q68.58125 218.86458 69.06563 218.16145Q69.56563 217.45833 69.56563 215.34895Q69.56563 213.22395 69.06563 212.53645Q68.58125 211.83333 67.83125 211.83333Q67.1125 211.83333 66.675 212.4427Q66.12813 213.22395 66.12813 215.34895ZM72.05 215.34895Q72.05 213.8177 72.3625 212.89583Q72.675 211.95833 73.28438 211.45833Q73.90938 210.95833 74.84688 210.95833Q75.53438 210.95833 76.05 211.23958Q76.58125 211.52083 76.925 212.05208Q77.26875 212.5677 77.45625 213.3177Q77.64375 214.0677 77.64375 215.34895Q77.64375 216.86458 77.33125 217.78645Q77.03438 218.70833 76.40938 219.22395Q75.8 219.72395 74.84688 219.72395Q73.6125 219.72395 72.89375 218.83333Q72.05 217.77083 72.05 215.34895ZM73.12813 215.34895Q73.12813 217.45833 73.62813 218.16145Q74.12813 218.86458 74.84688 218.86458Q75.58125 218.86458 76.06563 218.16145Q76.56563 217.45833 76.56563 215.34895Q76.56563 213.22395 76.06563 212.53645Q75.58125 211.83333 74.83125 211.83333Q74.1125 211.83333 73.675 212.4427Q73.12813 213.22395 73.12813 215.34895Z" fill-rule="nonzero"/><path fill="#000000" d="M55.01875 177.15L53.971874 177.15L53.971874 170.43124Q53.58125 170.79062 52.95625 171.16562Q52.346874 171.525 51.8625 171.69687L51.8625 170.68124Q52.7375 170.25937 53.39375 169.68124Q54.065624 169.0875 54.346874 168.525L55.01875 168.525L55.01875 177.15ZM58.05 174.9L59.159374 174.80624Q59.284374 175.61874 59.721874 176.025Q60.175 176.43124 60.815624 176.43124Q61.565624 176.43124 62.096874 175.85312Q62.628124 175.275 62.628124 174.3375Q62.628124 173.43124 62.1125 172.91562Q61.6125 172.38437 60.784374 172.38437Q60.284374 172.38437 59.8625 172.61874Q59.45625 172.85312 59.221874 173.2125L58.2375 173.0875L59.065624 168.68124L63.346874 168.68124L63.346874 169.68124L59.909374 169.68124L59.45625 171.99374Q60.221874 171.44687 61.065624 171.44687Q62.190624 171.44687 62.95625 172.22812Q63.7375 173.00937 63.7375 174.24374Q63.7375 175.4 63.065624 176.25937Q62.2375 177.29062 60.815624 177.29062Q59.64375 177.29062 58.89375 176.63437Q58.159374 175.97812 58.05 174.9ZM65.05 172.91562Q65.05 171.38437 65.3625 170.4625Q65.675 169.525 66.28438 169.025Q66.90938 168.525 67.84688 168.525Q68.53438 168.525 69.05 168.80624Q69.58125 169.0875 69.925 169.61874Q70.26875 170.13437 70.45625 170.88437Q70.64375 171.63437 70.64375 172.91562Q70.64375 174.43124 70.33125 175.35312Q70.03438 176.275 69.40938 176.79062Q68.8 177.29062 67.84688 177.29062Q66.6125 177.29062 65.89375 176.4Q65.05 175.3375 65.05 172.91562ZM66.12813 172.91562Q66.12813 175.025 66.62813 175.72812Q67.12813 176.43124 67.84688 176.43124Q68.58125 176.43124 69.06563 175.72812Q69.56563 175.025 69.56563 172.91562Q69.56563 170.79062 69.06563 170.10312Q68.58125 169.4 67.83125 169.4Q67.1125 169.4 66.675 170.00937Q66.12813 170.79062 66.12813 172.91562ZM72.05 172.91562Q72.05 171.38437 72.3625 170.4625Q72.675 169.525 73.28438 169.025Q73.90938 168.525 74.84688 168.525Q75.53438 168.525 76.05 168.80624Q76.58125 169.0875 76.925 169.61874Q77.26875 170.13437 77.45625 170.88437Q77.64375 171.63437 77.64375 172.91562Q77.64375 174.43124 77.33125 175.35312Q77.03438 176.275 76.40938 176.79062Q75.8 177.29062 74.84688 177.29062Q73.6125 177.29062 72.89375 176.4Q72.05 175.3375 72.05 172.91562ZM73.12813 172.91562Q73.12813 175.025 73.62813 175.72812Q74.12813 176.43124 74.84688 176.43124Q75.58125 176.43124 76.06563 175.72812Q76.56563 175.025 76.56563 172.91562Q76.56563 170.79062 76.06563 170.10312Q75.58125 169.4 74.83125 169.4Q74.1125 169.4 73.675 170.00937Q73.12813 170.79062 73.12813 172.91562Z" fill-rule="nonzero"/><path fill="#000000" d="M56.596874 133.70103L56.596874 134.71666L50.909374 134.71666Q50.909374 134.34166 51.034374 133.98228Q51.253124 133.40416 51.721874 132.84166Q52.20625 132.27916 53.1125 131.54478Q54.51875 130.38853 55.003124 129.71666Q55.503124 129.04478 55.503124 128.45103Q55.503124 127.826035 55.05 127.40416Q54.596874 126.96666 53.878124 126.96666Q53.1125 126.96666 52.659374 127.419785Q52.20625 127.87291 52.190624 128.68541L51.1125 128.57603Q51.221874 127.357285 51.940624 126.732285Q52.675 126.09166 53.909374 126.09166Q55.14375 126.09166 55.8625 126.77916Q56.58125 127.46666 56.58125 128.48228Q56.58125 128.99791 56.3625 129.49791Q56.159374 129.98228 55.659374 130.54478Q55.175 131.09166 54.05 132.04478Q53.096874 132.84166 52.815624 133.13853Q52.55 133.41978 52.378124 133.70103L56.596874 133.70103ZM58.05 130.48228Q58.05 128.95103 58.3625 128.02916Q58.675 127.09166 59.284374 126.59166Q59.909374 126.09166 60.846874 126.09166Q61.534374 126.09166 62.05 126.37291Q62.58125 126.65416 62.925 127.18541Q63.26875 127.701035 63.45625 128.45103Q63.64375 129.20103 63.64375 130.48228Q63.64375 131.99791 63.33125 132.91978Q63.034374 133.84166 62.409374 134.35728Q61.8 134.85728 60.846874 134.85728Q59.6125 134.85728 58.89375 133.96666Q58.05 132.90416 58.05 130.48228ZM59.128124 130.48228Q59.128124 132.59166 59.628124 133.29478Q60.128124 133.99791 60.846874 133.99791Q61.58125 133.99791 62.065624 133.29478Q62.565624 132.59166 62.565624 130.48228Q62.565624 128.35728 62.065624 127.669785Q61.58125 126.96666 60.83125 126.96666Q60.1125 126.96666 59.675 127.576035Q59.128124 128.35728 59.128124 130.48228ZM65.05 130.48228Q65.05 128.95103 65.3625 128.02916Q65.675 127.09166 66.28438 126.59166Q66.90938 126.09166 67.84688 126.09166Q68.53438 126.09166 69.05 126.37291Q69.58125 126.65416 69.925 127.18541Q70.26875 127.701035 70.45625 128.45103Q70.64375 129.20103 70.64375 130.48228Q70.64375 131.99791 70.33125 132.91978Q70.03438 133.84166 69.40938 134.35728Q68.8 134.85728 67.84688 134.85728Q66.6125 134.85728 65.89375 133.96666Q65.05 132.90416 65.05 130.48228ZM66.12813 130.48228Q66.12813 132.59166 66.62813 133.29478Q67.12813 133.99791 67.84688 133.99791Q68.58125 133.99791 69.06563 133.29478Q69.56563 132.59166 69.56563 130.48228Q69.56563 128.35728 69.06563 127.669785Q68.58125 126.96666 67.83125 126.96666Q67.1125 126.96666 66.675 127.576035Q66.12813 128.35728 66.12813 130.48228ZM72.05 130.48228Q72.05 128.95103 72.3625 128.02916Q72.675 127.09166 73.28438 126.59166Q73.90938 126.09166 74.84688 126.09166Q75.53438 126.09166 76.05 126.37291Q76.58125 126.65416 76.925 127.18541Q77.26875 127.701035 77.45625 128.45103Q77.64375 129.20103 77.64375 130.48228Q77.64375 131.99791 77.33125 132.91978Q77.03438 133.84166 76.40938 134.35728Q75.8 134.85728 74.84688 134.85728Q73.6125 134.85728 72.89375 133.96666Q72.05 132.90416 72.05 130.48228ZM73.12813 130.48228Q73.12813 132.59166 73.62813 133.29478Q74.12813 133.99791 74.84688 133.99791Q75.58125 133.99791 76.06563 133.29478Q76.56563 132.59166 76.56563 130.48228Q76.56563 128.35728 76.06563 127.669785Q75.58125 126.96666 74.83125 126.96666Q74.1125 126.96666 73.675 127.576035Q73.12813 128.35728 73.12813 130.48228Z" fill-rule="nonzero"/><path fill="#000000" d="M56.596874 91.26771L56.596874 92.28333L50.909374 92.28333Q50.909374 91.90833 51.034374 91.54896Q51.253124 90.97083 51.721874 90.40833Q52.20625 89.84583 53.1125 89.11146Q54.51875 87.95521 55.003124 87.28333Q55.503124 86.61146 55.503124 86.01771Q55.503124 85.39271 55.05 84.97083Q54.596874 84.53333 53.878124 84.53333Q53.1125 84.53333 52.659374 84.98646Q52.20625 85.43958 52.190624 86.25208L51.1125 86.14271Q51.221874 84.92396 51.940624 84.29896Q52.675 83.65833 53.909374 83.65833Q55.14375 83.65833 55.8625 84.34583Q56.58125 85.03333 56.58125 86.04896Q56.58125 86.56458 56.3625 87.06458Q56.159374 87.54896 55.659374 88.11146Q55.175 88.65833 54.05 89.61146Q53.096874 90.40833 52.815624 90.70521Q52.55 90.98646 52.378124 91.26771L56.596874 91.26771ZM58.05 90.03333L59.159374 89.93958Q59.284374 90.75208 59.721874 91.15833Q60.175 91.56458 60.815624 91.56458Q61.565624 91.56458 62.096874 90.98646Q62.628124 90.40833 62.628124 89.47083Q62.628124 88.56458 62.1125 88.04896Q61.6125 87.51771 60.784374 87.51771Q60.284374 87.51771 59.8625 87.75208Q59.45625 87.98646 59.221874 88.34583L58.2375 88.22083L59.065624 83.81458L63.346874 83.81458L63.346874 84.81458L59.909374 84.81458L59.45625 87.12708Q60.221874 86.58021 61.065624 86.58021Q62.190624 86.58021 62.95625 87.36146Q63.7375 88.14271 63.7375 89.37708Q63.7375 90.53333 63.065624 91.39271Q62.2375 92.42396 60.815624 92.42396Q59.64375 92.42396 58.89375 91.76771Q58.159374 91.11146 58.05 90.03333ZM65.05 88.04896Q65.05 86.51771 65.3625 85.59583Q65.675 84.65833 66.28438 84.15833Q66.90938 83.65833 67.84688 83.65833Q68.53438 83.65833 69.05 83.93958Q69.58125 84.22083 69.925 84.75208Q70.26875 85.26771 70.45625 86.01771Q70.64375 86.76771 70.64375 88.04896Q70.64375 89.56458 70.33125 90.48646Q70.03438 91.40833 69.40938 91.92396Q68.8 92.42396 67.84688 92.42396Q66.6125 92.42396 65.89375 91.53333Q65.05 90.47083 65.05 88.04896ZM66.12813 88.04896Q66.12813 90.15833 66.62813 90.86146Q67.12813 91.56458 67.84688 91.56458Q68.58125 91.56458 69.06563 90.86146Q69.56563 90.15833 69.56563 88.04896Q69.56563 85.92396 69.06563 85.23646Q68.58125 84.53333 67.83125 84.53333Q67.1125 84.53333 66.675 85.14271Q66.12813 85.92396 66.12813 88.04896ZM72.05 88.04896Q72.05 86.51771 72.3625 85.59583Q72.675 84.65833 73.28438 84.15833Q73.90938 83.65833 74.84688 83.65833Q75.53438 83.65833 76.05 83.93958Q76.58125 84.22083 76.925 84.75208Q77.26875 85.26771 77.45625 86.01771Q77.64375 86.76771 77.64375 88.04896Q77.64375 89.56458 77.33125 90.48646Q77.03438 91.40833 76.40938 91.92396Q75.8 92.42396 74.84688 92.42396Q73.6125 92.42396 72.89375 91.53333Q72.05 90.47083 72.05 88.04896ZM73.12813 88.04896Q73.12813 90.15833 73.62813 90.86146Q74.12813 91.56458 74.84688 91.56458Q75.58125 91.56458 76.06563 90.86146Q76.56563 90.15833 76.56563 88.04896Q76.56563 85.92396 76.06563 85.23646Q75.58125 84.53333 74.83125 84.53333Q74.1125 84.53333 73.675 85.14271Q73.12813 85.92396 73.12813 88.04896Z" fill-rule="nonzero"/><path fill="#000000" d="M609.95 300.21564Q609.95 298.6844 610.2625 297.7625Q610.575 296.825 611.1844 296.325Q611.8094 295.825 612.7469 295.825Q613.4344 295.825 613.95 296.10626Q614.48126 296.3875 614.825 296.91876Q615.16876 297.4344 615.35626 298.1844Q615.54376 298.9344 615.54376 300.21564Q615.54376 301.73126 615.23126 302.65314Q614.9344 303.575 614.3094 304.09064Q613.7 304.59064 612.7469 304.59064Q611.5125 304.59064 610.79376 303.7Q609.95 302.6375 609.95 300.21564ZM611.02814 300.21564Q611.02814 302.325 611.52814 303.02814Q612.02814 303.73126 612.7469 303.73126Q613.48126 303.73126 613.96564 303.02814Q614.46564 302.325 614.46564 300.21564Q614.46564 298.09064 613.96564 297.40314Q613.48126 296.7 612.73126 296.7Q612.0125 296.7 611.575 297.3094Q611.02814 298.09064 611.02814 300.21564Z" fill-rule="nonzero"/><path fill="#000000" d="M615.4969 261.00104L615.4969 262.01666L609.8094 262.01666Q609.8094 261.64166 609.9344 261.2823Q610.15314 260.70416 610.6219 260.14166Q611.10626 259.57916 612.0125 258.8448Q613.41876 257.68854 613.90314 257.01666Q614.40314 256.3448 614.40314 255.75104Q614.40314 255.12604 613.95 254.70416Q613.4969 254.26666 612.77814 254.26666Q612.0125 254.26666 611.5594 254.71979Q611.10626 255.17291 611.09064 255.98541L610.0125 255.87604Q610.1219 254.65729 610.84064 254.03229Q611.575 253.39166 612.8094 253.39166Q614.04376 253.39166 614.7625 254.07916Q615.48126 254.76666 615.48126 255.78229Q615.48126 256.2979 615.2625 256.7979Q615.0594 257.2823 614.5594 257.8448Q614.075 258.39166 612.95 259.3448Q611.9969 260.14166 611.71564 260.43854Q611.45 260.7198 611.27814 261.00104L615.4969 261.00104ZM616.95 259.76666L618.0594 259.6729Q618.1844 260.4854 618.6219 260.89166Q619.075 261.2979 619.71564 261.2979Q620.46564 261.2979 620.9969 260.7198Q621.52814 260.14166 621.52814 259.20416Q621.52814 258.2979 621.0125 257.7823Q620.5125 257.25104 619.6844 257.25104Q619.1844 257.25104 618.7625 257.4854Q618.35626 257.7198 618.1219 258.07916L617.1375 257.95416L617.96564 253.54791L622.2469 253.54791L622.2469 254.54791L618.8094 254.54791L618.35626 256.8604Q619.1219 256.31354 619.96564 256.31354Q621.09064 256.31354 621.85626 257.0948Q622.6375 257.87604 622.6375 259.1104Q622.6375 260.26666 621.96564 261.12604Q621.1375 262.1573 619.71564 262.1573Q618.54376 262.1573 617.79376 261.50104Q617.0594 260.8448 616.95 259.76666Z" fill-rule="nonzero"/><path fill="#000000" d="M609.95 217.33333L611.0594 217.23958Q611.1844 218.05208 611.6219 218.45833Q612.075 218.86458 612.71564 218.86458Q613.46564 218.86458 613.9969 218.28645Q614.52814 217.70833 614.52814 216.77083Q614.52814 215.86458 614.0125 215.34895Q613.5125 214.8177 612.6844 214.8177Q612.1844 214.8177 611.7625 215.05208Q611.35626 215.28645 611.1219 215.64583L610.1375 215.52083L610.96564 211.11458L615.2469 211.11458L615.2469 212.11458L611.8094 212.11458L611.35626 214.42708Q612.1219 213.8802 612.96564 213.8802Q614.09064 213.8802 614.85626 214.66145Q615.6375 215.4427 615.6375 216.67708Q615.6375 217.83333 614.96564 218.6927Q614.1375 219.72395 612.71564 219.72395Q611.54376 219.72395 610.79376 219.0677Q610.0594 218.41145 609.95 217.33333ZM616.95 215.34895Q616.95 213.8177 617.2625 212.89583Q617.575 211.95833 618.1844 211.45833Q618.8094 210.95833 619.7469 210.95833Q620.4344 210.95833 620.95 211.23958Q621.48126 211.52083 621.825 212.05208Q622.16876 212.5677 622.35626 213.3177Q622.54376 214.0677 622.54376 215.34895Q622.54376 216.86458 622.23126 217.78645Q621.9344 218.70833 621.3094 219.22395Q620.7 219.72395 619.7469 219.72395Q618.5125 219.72395 617.79376 218.83333Q616.95 217.77083 616.95 215.34895ZM618.02814 215.34895Q618.02814 217.45833 618.52814 218.16145Q619.02814 218.86458 619.7469 218.86458Q620.48126 218.86458 620.96564 218.16145Q621.46564 217.45833 621.46564 215.34895Q621.46564 213.22395 620.96564 212.53645Q620.48126 211.83333 619.73126 211.83333Q619.0125 211.83333 618.575 212.4427Q618.02814 213.22395 618.02814 215.34895Z" fill-rule="nonzero"/><path fill="#000000" d="M610.0125 169.68124L610.0125 168.66562L615.575 168.66562L615.575 169.49374Q614.7625 170.36874 613.95 171.82187Q613.15314 173.25937 612.71564 174.79062Q612.3875 175.86874 612.3094 177.15L611.21564 177.15Q611.23126 176.13437 611.60626 174.69687Q611.9969 173.25937 612.7 171.93124Q613.41876 170.60312 614.23126 169.68124L610.0125 169.68124ZM616.95 174.9L618.0594 174.80624Q618.1844 175.61874 618.6219 176.025Q619.075 176.43124 619.71564 176.43124Q620.46564 176.43124 620.9969 175.85312Q621.52814 175.275 621.52814 174.3375Q621.52814 173.43124 621.0125 172.91562Q620.5125 172.38437 619.6844 172.38437Q619.1844 172.38437 618.7625 172.61874Q618.35626 172.85312 618.1219 173.2125L617.1375 173.0875L617.96564 168.68124L622.2469 168.68124L622.2469 169.68124L618.8094 169.68124L618.35626 171.99374Q619.1219 171.44687 619.96564 171.44687Q621.09064 171.44687 621.85626 172.22812Q622.6375 173.00937 622.6375 174.24374Q622.6375 175.4 621.96564 176.25937Q621.1375 177.29062 619.71564 177.29062Q618.54376 177.29062 617.79376 176.63437Q617.0594 175.97812 616.95 174.9Z" fill-rule="nonzero"/><path fill="#000000" d="M613.91876 134.71666L612.8719 134.71666L612.8719 127.99791Q612.48126 128.35728 611.85626 128.73228Q611.2469 129.09166 610.7625 129.26353L610.7625 128.24791Q611.6375 127.826035 612.29376 127.24791Q612.96564 126.65416 613.2469 126.09166L613.91876 126.09166L613.91876 134.71666ZM616.95 130.48228Q616.95 128.95103 617.2625 128.02916Q617.575 127.09166 618.1844 126.59166Q618.8094 126.09166 619.7469 126.09166Q620.4344 126.09166 620.95 126.37291Q621.48126 126.65416 621.825 127.18541Q622.16876 127.701035 622.35626 128.45103Q622.54376 129.20103 622.54376 130.48228Q622.54376 131.99791 622.23126 132.91978Q621.9344 133.84166 621.3094 134.35728Q620.7 134.85728 619.7469 134.85728Q618.5125 134.85728 617.79376 133.96666Q616.95 132.90416 616.95 130.48228ZM618.02814 130.48228Q618.02814 132.59166 618.52814 133.29478Q619.02814 133.99791 619.7469 133.99791Q620.48126 133.99791 620.96564 133.29478Q621.46564 132.59166 621.46564 130.48228Q621.46564 128.35728 620.96564 127.669785Q620.48126 126.96666 619.73126 126.96666Q619.0125 126.96666 618.575 127.576035Q618.02814 128.35728 618.02814 130.48228ZM623.95 130.48228Q623.95 128.95103 624.2625 128.02916Q624.575 127.09166 625.1844 126.59166Q625.8094 126.09166 626.7469 126.09166Q627.4344 126.09166 627.95 126.37291Q628.48126 126.65416 628.825 127.18541Q629.16876 127.701035 629.35626 128.45103Q629.54376 129.20103 629.54376 130.48228Q629.54376 131.99791 629.23126 132.91978Q628.9344 133.84166 628.3094 134.35728Q627.7 134.85728 626.7469 134.85728Q625.5125 134.85728 624.79376 133.96666Q623.95 132.90416 623.95 130.48228ZM625.02814 130.48228Q625.02814 132.59166 625.52814 133.29478Q626.02814 133.99791 626.7469 133.99791Q627.48126 133.99791 627.96564 133.29478Q628.46564 132.59166 628.46564 130.48228Q628.46564 128.35728 627.96564 127.669785Q627.48126 126.96666 626.73126 126.96666Q626.0125 126.96666 625.575 127.576035Q625.02814 128.35728 625.02814 130.48228Z" fill-rule="nonzero"/><path fill="#000000" d="M613.91876 92.28333L612.8719 92.28333L612.8719 85.56458Q612.48126 85.92396 611.85626 86.29896Q611.2469 86.65833 610.7625 86.83021L610.7625 85.81458Q611.6375 85.39271 612.29376 84.81458Q612.96564 84.22083 613.2469 83.65833L613.91876 83.65833L613.91876 92.28333ZM622.4969 91.26771L622.4969 92.28333L616.8094 92.28333Q616.8094 91.90833 616.9344 91.54896Q617.15314 90.97083 617.6219 90.40833Q618.10626 89.84583 619.0125 89.11146Q620.41876 87.95521 620.90314 87.28333Q621.40314 86.61146 621.40314 86.01771Q621.40314 85.39271 620.95 84.97083Q620.4969 84.53333 619.77814 84.53333Q619.0125 84.53333 618.5594 84.98646Q618.10626 85.43958 618.09064 86.25208L617.0125 86.14271Q617.1219 84.92396 617.84064 84.29896Q618.575 83.65833 619.8094 83.65833Q621.04376 83.65833 621.7625 84.34583Q622.48126 85.03333 622.48126 86.04896Q622.48126 86.56458 622.2625 87.06458Q622.0594 87.54896 621.5594 88.11146Q621.075 88.65833 619.95 89.61146Q618.9969 90.40833 618.71564 90.70521Q618.45 90.98646 618.27814 91.26771L622.4969 91.26771ZM623.95 90.03333L625.0594 89.93958Q625.1844 90.75208 625.6219 91.15833Q626.075 91.56458 626.71564 91.56458Q627.46564 91.56458 627.9969 90.98646Q628.52814 90.40833 628.52814 89.47083Q628.52814 88.56458 628.0125 88.04896Q627.5125 87.51771 626.6844 87.51771Q626.1844 87.51771 625.7625 87.75208Q625.35626 87.98646 625.1219 88.34583L624.1375 88.22083L624.96564 83.81458L629.2469 83.81458L629.2469 84.81458L625.8094 84.81458L625.35626 87.12708Q626.1219 86.58021 626.96564 86.58021Q628.09064 86.58021 628.85626 87.36146Q629.6375 88.14271 629.6375 89.37708Q629.6375 90.53333 628.96564 91.39271Q628.1375 92.42396 626.71564 92.42396Q625.54376 92.42396 624.79376 91.76771Q624.0594 91.11146 623.95 90.03333Z" fill-rule="nonzero"/><path fill="#000000" d="M139.1933 316.4344L139.1933 317.45L133.5058 317.45Q133.5058 317.075 133.6308 316.71564Q133.84955 316.1375 134.3183 315.575Q134.80267 315.0125 135.70892 314.27814Q137.11517 313.1219 137.59955 312.45Q138.09955 311.77814 138.09955 311.1844Q138.09955 310.5594 137.64642 310.1375Q137.1933 309.7 136.47455 309.7Q135.70892 309.7 135.2558 310.15314Q134.80267 310.60626 134.78705 311.41876L133.70892 311.3094Q133.8183 310.09064 134.53705 309.46564Q135.27142 308.825 136.5058 308.825Q137.74017 308.825 138.45892 309.5125Q139.17767 310.2 139.17767 311.21564Q139.17767 311.73126 138.95892 312.23126Q138.7558 312.71564 138.2558 313.27814Q137.77142 313.825 136.64642 314.77814Q135.6933 315.575 135.41205 315.8719Q135.14642 316.15314 134.97455 316.4344L139.1933 316.4344ZM140.64642 313.21564Q140.64642 311.6844 140.95892 310.7625Q141.27142 309.825 141.8808 309.325Q142.5058 308.825 143.4433 308.825Q144.1308 308.825 144.64642 309.10626Q145.17767 309.3875 145.52142 309.91876Q145.86517 310.4344 146.05267 311.1844Q146.24017 311.9344 146.24017 313.21564Q146.24017 314.73126 145.92767 315.65314Q145.6308 316.575 145.0058 317.09064Q144.39642 317.59064 143.4433 317.59064Q142.20892 317.59064 141.49017 316.7Q140.64642 315.6375 140.64642 313.21564ZM141.72455 313.21564Q141.72455 315.325 142.22455 316.02814Q142.72455 316.73126 143.4433 316.73126Q144.17767 316.73126 144.66205 316.02814Q145.16205 315.325 145.16205 313.21564Q145.16205 311.09064 144.66205 310.40314Q144.17767 309.7 143.42767 309.7Q142.70892 309.7 142.27142 310.3094Q141.72455 311.09064 141.72455 313.21564Z" fill-rule="nonzero"/><path fill="#000000" d="M229.68214 317.45L229.68214 315.3875L225.9634 315.3875L225.9634 314.41876L229.88527 308.85626L230.74464 308.85626L230.74464 314.41876L231.9009 314.41876L231.9009 315.3875L230.74464 315.3875L230.74464 317.45L229.68214 317.45ZM229.68214 314.41876L229.68214 310.5594L226.99464 314.41876L229.68214 314.41876ZM233.30714 313.21564Q233.30714 311.6844 233.61964 310.7625Q233.93214 309.825 234.54152 309.325Q235.16652 308.825 236.10402 308.825Q236.79152 308.825 237.30714 309.10626Q237.8384 309.3875 238.18214 309.91876Q238.5259 310.4344 238.7134 311.1844Q238.9009 311.9344 238.9009 313.21564Q238.9009 314.73126 238.5884 315.65314Q238.29152 316.575 237.66652 317.09064Q237.05714 317.59064 236.10402 317.59064Q234.86964 317.59064 234.1509 316.7Q233.30714 315.6375 233.30714 313.21564ZM234.38527 313.21564Q234.38527 315.325 234.88527 316.02814Q235.38527 316.73126 236.10402 316.73126Q236.8384 316.73126 237.32277 316.02814Q237.82277 315.325 237.82277 313.21564Q237.82277 311.09064 237.32277 310.40314Q236.8384 309.7 236.0884 309.7Q235.36964 309.7 234.93214 310.3094Q234.38527 311.09064 234.38527 313.21564Z" fill-rule="nonzero"/><path fill="#000000" d="M324.4366 310.96564L323.38974 311.04376Q323.2491 310.41876 322.9991 310.1375Q322.5616 309.6844 321.9366 309.6844Q321.4366 309.6844 321.046 309.96564Q320.5616 310.34064 320.26474 311.04376Q319.9835 311.73126 319.96786 313.0125Q320.34286 312.4344 320.88974 312.15314Q321.45224 311.8719 322.0616 311.8719Q323.1085 311.8719 323.84286 312.65314Q324.59286 313.4344 324.59286 314.65314Q324.59286 315.46564 324.2335 316.16876Q323.88974 316.85626 323.28036 317.23126Q322.671 317.59064 321.90536 317.59064Q320.57724 317.59064 319.7491 316.6219Q318.921 315.65314 318.921 313.4344Q318.921 310.9344 319.84286 309.8094Q320.63974 308.825 321.9991 308.825Q323.01474 308.825 323.65536 309.40314Q324.3116 309.96564 324.4366 310.96564ZM320.13974 314.66876Q320.13974 315.21564 320.3585 315.71564Q320.59286 316.2 320.9991 316.46564Q321.421 316.73126 321.88974 316.73126Q322.546 316.73126 323.03036 316.2Q323.51474 315.65314 323.51474 314.73126Q323.51474 313.84064 323.03036 313.325Q322.5616 312.8094 321.84286 312.8094Q321.1241 312.8094 320.6241 313.325Q320.13974 313.84064 320.13974 314.66876ZM325.96786 313.21564Q325.96786 311.6844 326.28036 310.7625Q326.59286 309.825 327.20224 309.325Q327.82724 308.825 328.76474 308.825Q329.45224 308.825 329.96786 309.10626Q330.4991 309.3875 330.84286 309.91876Q331.1866 310.4344 331.3741 311.1844Q331.5616 311.9344 331.5616 313.21564Q331.5616 314.73126 331.2491 315.65314Q330.95224 316.575 330.32724 317.09064Q329.71786 317.59064 328.76474 317.59064Q327.53036 317.59064 326.8116 316.7Q325.96786 315.6375 325.96786 313.21564ZM327.046 313.21564Q327.046 315.325 327.546 316.02814Q328.046 316.73126 328.76474 316.73126Q329.4991 316.73126 329.9835 316.02814Q330.4835 315.325 330.4835 313.21564Q330.4835 311.09064 329.9835 310.40314Q329.4991 309.7 328.7491 309.7Q328.03036 309.7 327.59286 310.3094Q327.046 311.09064 327.046 313.21564Z" fill-rule="nonzero"/><path fill="#000000" d="M413.25357 312.79376Q412.59732 312.54376 412.2692 312.10626Q411.9567 311.65314 411.9567 311.04376Q411.9567 310.10626 412.62857 309.46564Q413.31607 308.825 414.42545 308.825Q415.55045 308.825 416.23795 309.48126Q416.92545 310.1375 416.92545 311.075Q416.92545 311.66876 416.61295 312.10626Q416.30045 312.54376 415.65982 312.79376Q416.4567 313.04376 416.86295 313.6219Q417.2692 314.2 417.2692 314.9969Q417.2692 316.09064 416.48795 316.84064Q415.72232 317.59064 414.44107 317.59064Q413.17545 317.59064 412.3942 316.84064Q411.61295 316.09064 411.61295 314.96564Q411.61295 314.1219 412.03482 313.5594Q412.47232 312.9969 413.25357 312.79376ZM413.03482 310.9969Q413.03482 311.60626 413.42545 311.9969Q413.8317 312.3875 414.4567 312.3875Q415.06607 312.3875 415.4567 312.0125Q415.84732 311.6219 415.84732 311.0594Q415.84732 310.48126 415.44107 310.09064Q415.03482 309.6844 414.44107 309.6844Q413.8317 309.6844 413.42545 310.075Q413.03482 310.46564 413.03482 310.9969ZM412.7067 314.96564Q412.7067 315.41876 412.90982 315.84064Q413.12857 316.2625 413.55045 316.4969Q413.97232 316.73126 414.4567 316.73126Q415.2067 316.73126 415.69107 316.2469Q416.19107 315.7625 416.19107 315.0125Q416.19107 314.2469 415.69107 313.7469Q415.19107 313.2469 414.42545 313.2469Q413.67545 313.2469 413.19107 313.7469Q412.7067 314.23126 412.7067 314.96564ZM418.62857 313.21564Q418.62857 311.6844 418.94107 310.7625Q419.25357 309.825 419.86295 309.325Q420.48795 308.825 421.42545 308.825Q422.11295 308.825 422.62857 309.10626Q423.15982 309.3875 423.50357 309.91876Q423.84732 310.4344 424.03482 311.1844Q424.22232 311.9344 424.22232 313.21564Q424.22232 314.73126 423.90982 315.65314Q423.61295 316.575 422.98795 317.09064Q422.37857 317.59064 421.42545 317.59064Q420.19107 317.59064 419.47232 316.7Q418.62857 315.6375 418.62857 313.21564ZM419.7067 313.21564Q419.7067 315.325 420.2067 316.02814Q420.7067 316.73126 421.42545 316.73126Q422.15982 316.73126 422.6442 316.02814Q423.1442 315.325 423.1442 313.21564Q423.1442 311.09064 422.6442 310.40314Q422.15982 309.7 421.40982 309.7Q420.69107 309.7 420.25357 310.3094Q419.7067 311.09064 419.7067 313.21564Z" fill-rule="nonzero"/><path fill="#000000" d="M504.75803 317.45L503.71115 317.45L503.71115 310.73126Q503.32053 311.09064 502.69553 311.46564Q502.08615 311.825 501.60178 311.9969L501.60178 310.98126Q502.47678 310.5594 503.13303 309.98126Q503.8049 309.3875 504.08615 308.825L504.75803 308.825L504.75803 317.45ZM507.78928 313.21564Q507.78928 311.6844 508.10178 310.7625Q508.41428 309.825 509.02365 309.325Q509.64865 308.825 510.58615 308.825Q511.27365 308.825 511.78928 309.10626Q512.32056 309.3875 512.6643 309.91876Q513.00806 310.4344 513.19556 311.1844Q513.38306 311.9344 513.38306 313.21564Q513.38306 314.73126 513.07056 315.65314Q512.7737 316.575 512.1487 317.09064Q511.53928 317.59064 510.58615 317.59064Q509.35178 317.59064 508.63303 316.7Q507.78928 315.6375 507.78928 313.21564ZM508.8674 313.21564Q508.8674 315.325 509.3674 316.02814Q509.8674 316.73126 510.58615 316.73126Q511.32053 316.73126 511.8049 316.02814Q512.30493 315.325 512.30493 313.21564Q512.30493 311.09064 511.8049 310.40314Q511.32053 309.7 510.57053 309.7Q509.85178 309.7 509.41428 310.3094Q508.8674 311.09064 508.8674 313.21564ZM514.7893 313.21564Q514.7893 311.6844 515.1018 310.7625Q515.4143 309.825 516.0237 309.325Q516.6487 308.825 517.5862 308.825Q518.2737 308.825 518.7893 309.10626Q519.32056 309.3875 519.6643 309.91876Q520.00806 310.4344 520.19556 311.1844Q520.38306 311.9344 520.38306 313.21564Q520.38306 314.73126 520.07056 315.65314Q519.7737 316.575 519.1487 317.09064Q518.5393 317.59064 517.5862 317.59064Q516.3518 317.59064 515.63306 316.7Q514.7893 315.6375 514.7893 313.21564ZM515.86743 313.21564Q515.86743 315.325 516.36743 316.02814Q516.86743 316.73126 517.5862 316.73126Q518.32056 316.73126 518.80493 316.02814Q519.30493 315.325 519.30493 313.21564Q519.30493 311.09064 518.80493 310.40314Q518.32056 309.7 517.57056 309.7Q516.8518 309.7 516.4143 310.3094Q515.86743 311.09064 515.86743 313.21564Z" fill-rule="nonzero"/><path fill="#000000" d="M597.41876 317.45L596.3719 317.45L596.3719 310.73126Q595.98126 311.09064 595.35626 311.46564Q594.7469 311.825 594.2625 311.9969L594.2625 310.98126Q595.1375 310.5594 595.79376 309.98126Q596.46564 309.3875 596.7469 308.825L597.41876 308.825L597.41876 317.45ZM605.9969 316.4344L605.9969 317.45L600.3094 317.45Q600.3094 317.075 600.4344 316.71564Q600.65314 316.1375 601.1219 315.575Q601.60626 315.0125 602.5125 314.27814Q603.91876 313.1219 604.40314 312.45Q604.90314 311.77814 604.90314 311.1844Q604.90314 310.5594 604.45 310.1375Q603.9969 309.7 603.27814 309.7Q602.5125 309.7 602.0594 310.15314Q601.60626 310.60626 601.59064 311.41876L600.5125 311.3094Q600.6219 310.09064 601.34064 309.46564Q602.075 308.825 603.3094 308.825Q604.54376 308.825 605.2625 309.5125Q605.98126 310.2 605.98126 311.21564Q605.98126 311.73126 605.7625 312.23126Q605.5594 312.71564 605.0594 313.27814Q604.575 313.825 603.45 314.77814Q602.4969 315.575 602.21564 315.8719Q601.95 316.15314 601.77814 316.4344L605.9969 316.4344ZM607.45 313.21564Q607.45 311.6844 607.7625 310.7625Q608.075 309.825 608.6844 309.325Q609.3094 308.825 610.2469 308.825Q610.9344 308.825 611.45 309.10626Q611.98126 309.3875 612.325 309.91876Q612.66876 310.4344 612.85626 311.1844Q613.04376 311.9344 613.04376 313.21564Q613.04376 314.73126 612.73126 315.65314Q612.4344 316.575 611.8094 317.09064Q611.2 317.59064 610.2469 317.59064Q609.0125 317.59064 608.29376 316.7Q607.45 315.6375 607.45 313.21564ZM608.52814 313.21564Q608.52814 315.325 609.02814 316.02814Q609.52814 316.73126 610.2469 316.73126Q610.98126 316.73126 611.46564 316.02814Q611.96564 315.325 611.96564 313.21564Q611.96564 311.09064 611.46564 310.40314Q610.98126 309.7 610.23126 309.7Q609.5125 309.7 609.075 310.3094Q608.52814 311.09064 608.52814 313.21564Z" fill-rule="nonzero"/><path stroke="#4285f4" stroke-width="4.0" stroke-linecap="butt" d="M271.5 61.916668L283.5 61.916668" fill-rule="nonzero"/><path fill="#1a1a1a" d="M292.39062 65.916664L292.39062 57.322914L294.10938 57.322914L296.14062 63.40104Q296.42188 64.260414 296.54688 64.68229Q296.6875 64.21354 297.0 63.30729L299.0625 57.322914L300.59375 57.322914L300.59375 65.916664L299.5 65.916664L299.5 58.729164L297.0 65.916664L295.96875 65.916664L293.48438 58.604164L293.48438 65.916664L292.39062 65.916664ZM301.29688 58.541664L301.29688 57.322914L302.35938 57.322914L302.35938 58.541664L301.29688 58.541664ZM301.29688 65.916664L301.29688 59.697914L302.35938 59.697914L302.35938 65.916664L301.29688 65.916664ZM304.09375 66.43229L305.125 66.58854Q305.1875 67.05729 305.48438 67.27604Q305.875 67.572914 306.54688 67.572914Q307.28125 67.572914 307.67188 67.27604Q308.07812 66.979164 308.21875 66.46354Q308.3125 66.135414 308.29688 65.104164Q307.60938 65.916664 306.57812 65.916664Q305.29688 65.916664 304.59375 64.99479Q303.89062 64.05729 303.89062 62.77604Q303.89062 61.885414 304.20312 61.135414Q304.53125 60.36979 305.14062 59.96354Q305.75 59.55729 306.57812 59.55729Q307.6875 59.55729 308.40625 60.447914L308.40625 59.697914L309.375 59.697914L309.375 65.072914Q309.375 66.52604 309.07812 67.135414Q308.78125 67.74479 308.14062 68.08854Q307.5 68.447914 306.5625 68.447914Q305.45312 68.447914 304.76562 67.947914Q304.07812 67.447914 304.09375 66.43229ZM304.96875 62.697914Q304.96875 63.916664 305.45312 64.479164Q305.9375 65.041664 306.67188 65.041664Q307.40625 65.041664 307.89062 64.479164Q308.39062 63.916664 308.39062 62.729164Q308.39062 61.58854 307.875 61.010414Q307.375 60.43229 306.65625 60.43229Q305.95312 60.43229 305.45312 61.010414Q304.96875 61.572914 304.96875 62.697914ZM311.28125 65.916664L311.28125 59.697914L312.23438 59.697914L312.23438 60.635414Q312.59375 59.979164 312.89062 59.77604Q313.20312 59.55729 313.57812 59.55729Q314.10938 59.55729 314.65625 59.885414L314.29688 60.86979Q313.90625 60.635414 313.53125 60.635414Q313.17188 60.635414 312.89062 60.854164Q312.625 61.05729 312.51562 61.43229Q312.32812 61.99479 312.32812 62.65104L312.32812 65.916664L311.28125 65.916664ZM319.35938 65.15104Q318.76562 65.65104 318.21875 65.854164Q317.6875 66.05729 317.0625 66.05729Q316.03125 66.05729 315.48438 65.55729Q314.9375 65.05729 314.9375 64.27604Q314.9375 63.822914 315.14062 63.447914Q315.34375 63.05729 315.6875 62.83854Q316.03125 62.604164 316.45312 62.49479Q316.75 62.40104 317.39062 62.322914Q318.65625 62.18229 319.26562 61.96354Q319.26562 61.74479 319.26562 61.697914Q319.26562 61.041664 318.96875 60.77604Q318.5625 60.43229 317.76562 60.43229Q317.03125 60.43229 316.67188 60.697914Q316.3125 60.947914 316.14062 61.604164L315.10938 61.46354Q315.25 60.80729 315.57812 60.40104Q315.90625 59.99479 316.51562 59.77604Q317.125 59.55729 317.92188 59.55729Q318.71875 59.55729 319.21875 59.74479Q319.71875 59.93229 319.95312 60.21354Q320.1875 60.49479 320.28125 60.93229Q320.32812 61.197914 320.32812 61.90104L320.32812 63.30729Q320.32812 64.77604 320.39062 65.166664Q320.46875 65.55729 320.67188 65.916664L319.5625 65.916664Q319.40625 65.58854 319.35938 65.15104ZM319.26562 62.791664Q318.6875 63.02604 317.54688 63.197914Q316.89062 63.291664 316.625 63.416664Q316.35938 63.52604 316.20312 63.74479Q316.0625 63.96354 316.0625 64.24479Q316.0625 64.666664 316.375 64.947914Q316.70312 65.229164 317.3125 65.229164Q317.92188 65.229164 318.39062 64.96354Q318.875 64.697914 319.09375 64.229164Q319.26562 63.86979 319.26562 63.18229L319.26562 62.791664ZM324.59375 64.979164L324.75 65.90104Q324.29688 65.99479 323.95312 65.99479Q323.375 65.99479 323.0625 65.822914Q322.75 65.635414 322.60938 65.33854Q322.48438 65.041664 322.48438 64.08854L322.48438 60.510414L321.71875 60.510414L321.71875 59.697914L322.48438 59.697914L322.48438 58.15104L323.53125 57.52604L323.53125 59.697914L324.59375 59.697914L324.59375 60.510414L323.53125 60.510414L323.53125 64.15104Q323.53125 64.604164 323.57812 64.729164Q323.64062 64.854164 323.76562 64.93229Q323.89062 65.010414 324.125 65.010414Q324.3125 65.010414 324.59375 64.979164ZM325.29688 58.541664L325.29688 57.322914L326.35938 57.322914L326.35938 58.541664L325.29688 58.541664ZM325.29688 65.916664L325.29688 59.697914L326.35938 59.697914L326.35938 65.916664L325.29688 65.916664ZM327.90625 62.80729Q327.90625 61.072914 328.85938 60.24479Q329.65625 59.55729 330.8125 59.55729Q332.09375 59.55729 332.90625 60.40104Q333.73438 61.229164 333.73438 62.71354Q333.73438 63.916664 333.375 64.604164Q333.01562 65.291664 332.3125 65.68229Q331.625 66.05729 330.8125 66.05729Q329.51562 66.05729 328.70312 65.229164Q327.90625 64.385414 327.90625 62.80729ZM328.98438 62.80729Q328.98438 63.99479 329.5 64.58854Q330.03125 65.18229 330.8125 65.18229Q331.60938 65.18229 332.125 64.58854Q332.64062 63.99479 332.64062 62.77604Q332.64062 61.61979 332.10938 61.02604Q331.59375 60.43229 330.8125 60.43229Q330.03125 60.43229 329.5 61.02604Q328.98438 61.604164 328.98438 62.80729ZM335.29688 65.916664L335.29688 59.697914L336.23438 59.697914L336.23438 60.572914Q336.92188 59.55729 338.21875 59.55729Q338.78125 59.55729 339.25 59.760414Q339.73438 59.96354 339.96875 60.291664Q340.20312 60.61979 340.29688 61.05729Q340.34375 61.354164 340.34375 62.08854L340.34375 65.916664L339.29688 65.916664L339.29688 62.135414Q339.29688 61.479164 339.17188 61.166664Q339.04688 60.854164 338.73438 60.666664Q338.42188 60.46354 338.0 60.46354Q337.32812 60.46354 336.82812 60.90104Q336.34375 61.322914 336.34375 62.510414L336.34375 65.916664L335.29688 65.916664ZM341.875 64.05729L342.90625 63.90104Q343.0 64.52604 343.39062 64.854164Q343.79688 65.18229 344.53125 65.18229Q345.25 65.18229 345.59375 64.90104Q345.95312 64.604164 345.95312 64.197914Q345.95312 63.83854 345.64062 63.635414Q345.42188 63.49479 344.5625 63.27604Q343.40625 62.979164 342.95312 62.77604Q342.51562 62.55729 342.28125 62.18229Q342.04688 61.80729 342.04688 61.33854Q342.04688 60.93229 342.23438 60.572914Q342.42188 60.21354 342.75 59.979164Q343.0 59.80729 343.42188 59.68229Q343.84375 59.55729 344.34375 59.55729Q345.0625 59.55729 345.60938 59.77604Q346.17188 59.979164 346.4375 60.33854Q346.70312 60.697914 346.79688 61.291664L345.76562 61.43229Q345.70312 60.96354 345.35938 60.697914Q345.03125 60.416664 344.40625 60.416664Q343.6875 60.416664 343.375 60.666664Q343.0625 60.90104 343.0625 61.229164Q343.0625 61.43229 343.1875 61.58854Q343.32812 61.760414 343.59375 61.86979Q343.75 61.93229 344.53125 62.135414Q345.65625 62.447914 346.09375 62.635414Q346.53125 62.822914 346.78125 63.18229Q347.03125 63.541664 347.03125 64.08854Q347.03125 64.61979 346.71875 65.08854Q346.42188 65.541664 345.84375 65.80729Q345.26562 66.05729 344.53125 66.05729Q343.3125 66.05729 342.67188 65.55729Q342.04688 65.041664 341.875 64.05729Z" fill-rule="nonzero"/><path stroke="#ea4335" stroke-width="4.0" stroke-linecap="butt" d="M364.5 61.916668L376.5 61.916668" fill-rule="nonzero"/><path fill="#1a1a1a" d="M391.9375 64.99479Q392.73438 65.541664 393.39062 65.791664L393.0625 66.58854Q392.14062 66.24479 391.21875 65.52604Q390.26562 66.05729 389.10938 66.05729Q387.9375 66.05729 386.98438 65.49479Q386.04688 64.93229 385.53125 63.916664Q385.01562 62.90104 385.01562 61.61979Q385.01562 60.354164 385.53125 59.30729Q386.04688 58.260414 387.0 57.71354Q387.95312 57.166664 389.125 57.166664Q390.3125 57.166664 391.26562 57.74479Q392.23438 58.30729 392.73438 59.322914Q393.23438 60.33854 393.23438 61.61979Q393.23438 62.68229 392.90625 63.52604Q392.59375 64.36979 391.9375 64.99479ZM389.4375 63.541664Q390.42188 63.822914 391.0625 64.36979Q392.0625 63.447914 392.0625 61.61979Q392.0625 60.572914 391.70312 59.791664Q391.34375 59.010414 390.65625 58.58854Q389.98438 58.15104 389.14062 58.15104Q387.85938 58.15104 387.01562 59.02604Q386.1875 59.885414 386.1875 61.61979Q386.1875 63.291664 387.01562 64.197914Q387.84375 65.08854 389.14062 65.08854Q389.75 65.08854 390.28125 64.854164Q389.75 64.510414 389.15625 64.36979L389.4375 63.541664ZM394.42188 65.916664L394.42188 57.322914L397.67188 57.322914Q398.51562 57.322914 398.96875 57.40104Q399.60938 57.510414 400.03125 57.80729Q400.46875 58.104164 400.71875 58.635414Q400.98438 59.166664 400.98438 59.80729Q400.98438 60.90104 400.28125 61.666664Q399.59375 62.416664 397.76562 62.416664L395.5625 62.416664L395.5625 65.916664L394.42188 65.916664ZM395.5625 61.416664L397.78125 61.416664Q398.89062 61.416664 399.34375 61.010414Q399.8125 60.58854 399.8125 59.83854Q399.8125 59.30729 399.53125 58.93229Q399.26562 58.541664 398.82812 58.416664Q398.53125 58.33854 397.76562 58.33854L395.5625 58.33854L395.5625 61.416664ZM402.04688 63.15104L403.10938 63.05729Q403.1875 63.71354 403.46875 64.11979Q403.75 64.52604 404.32812 64.791664Q404.92188 65.041664 405.65625 65.041664Q406.29688 65.041664 406.79688 64.854164Q407.29688 64.65104 407.53125 64.322914Q407.78125 63.979164 407.78125 63.58854Q407.78125 63.18229 407.54688 62.885414Q407.3125 62.572914 406.78125 62.36979Q406.42188 62.229164 405.23438 61.947914Q404.0625 61.666664 403.59375 61.416664Q402.96875 61.08854 402.67188 60.61979Q402.375 60.135414 402.375 59.541664Q402.375 58.90104 402.73438 58.33854Q403.10938 57.760414 403.8125 57.479164Q404.53125 57.18229 405.39062 57.18229Q406.34375 57.18229 407.07812 57.49479Q407.8125 57.791664 408.20312 58.40104Q408.59375 58.99479 408.625 59.74479L407.53125 59.822914Q407.4375 59.010414 406.92188 58.604164Q406.42188 58.18229 405.4375 58.18229Q404.40625 58.18229 403.9375 58.55729Q403.46875 58.93229 403.46875 59.46354Q403.46875 59.93229 403.79688 60.229164Q404.125 60.52604 405.5 60.83854Q406.89062 61.15104 407.40625 61.385414Q408.15625 61.74479 408.51562 62.27604Q408.875 62.791664 408.875 63.49479Q408.875 64.18229 408.48438 64.791664Q408.09375 65.385414 407.35938 65.729164Q406.625 66.05729 405.70312 66.05729Q404.53125 66.05729 403.73438 65.729164Q402.95312 65.385414 402.5 64.697914Q402.0625 64.010414 402.04688 63.15104Z" fill-rule="nonzero"/><path fill="#757575" d="M20.096874 37.55L20.096874 23.2375L25.01875 23.2375Q26.690624 23.2375 27.58125 23.440624Q28.8 23.721874 29.675 24.45625Q30.8 25.425 31.3625 26.909374Q31.925 28.39375 31.925 30.315624Q31.925 31.940624 31.55 33.20625Q31.175 34.45625 30.565624 35.284374Q29.971874 36.1125 29.26875 36.596874Q28.565624 37.065624 27.565624 37.315624Q26.565624 37.55 25.253124 37.55L20.096874 37.55ZM21.9875 35.8625L25.05 35.8625Q26.45625 35.8625 27.253124 35.596874Q28.065624 35.33125 28.55 34.846874Q29.221874 34.175 29.596874 33.05Q29.971874 31.909374 29.971874 30.284374Q29.971874 28.034374 29.2375 26.83125Q28.503124 25.628124 27.440624 25.221874Q26.690624 24.925 25.003124 24.925L21.9875 24.925L21.9875 35.8625ZM40.971874 34.20625L42.784374 34.440624Q42.3625 36.01875 41.190624 36.909374Q40.034374 37.784374 38.221874 37.784374Q35.95625 37.784374 34.6125 36.39375Q33.284374 34.9875 33.284374 32.45625Q33.284374 29.83125 34.628124 28.39375Q35.971874 26.940624 38.128124 26.940624Q40.20625 26.940624 41.51875 28.3625Q42.846874 29.76875 42.846874 32.346874Q42.846874 32.503124 42.83125 32.815624L35.096874 32.815624Q35.190624 34.51875 36.065624 35.425Q36.940624 36.33125 38.2375 36.33125Q39.20625 36.33125 39.878124 35.83125Q40.565624 35.315624 40.971874 34.20625ZM35.190624 31.3625L40.9875 31.3625Q40.878124 30.065624 40.33125 29.409374Q39.4875 28.39375 38.14375 28.39375Q36.940624 28.39375 36.1125 29.20625Q35.284374 30.003124 35.190624 31.3625ZM51.596874 37.55L51.596874 36.2375Q50.6125 37.784374 48.690624 37.784374Q47.45625 37.784374 46.409374 37.096874Q45.378124 36.409374 44.8 35.190624Q44.2375 33.971874 44.2375 32.378124Q44.2375 30.815624 44.753124 29.55Q45.26875 28.284374 46.3 27.6125Q47.346874 26.940624 48.6125 26.940624Q49.55 26.940624 50.284374 27.346874Q51.01875 27.7375 51.4875 28.3625L51.4875 23.2375L53.221874 23.2375L53.221874 37.55L51.596874 37.55ZM46.034374 32.378124Q46.034374 34.3625 46.878124 35.346874Q47.721874 36.33125 48.8625 36.33125Q50.01875 36.33125 50.815624 35.39375Q51.628124 34.45625 51.628124 32.51875Q51.628124 30.39375 50.8 29.39375Q49.9875 28.39375 48.784374 28.39375Q47.6125 28.39375 46.815624 29.3625Q46.034374 30.315624 46.034374 32.378124ZM55.878124 25.253124L55.878124 23.2375L57.64375 23.2375L57.64375 25.253124L55.878124 25.253124ZM55.878124 37.55L55.878124 27.175L57.64375 27.175L57.64375 37.55L55.878124 37.55ZM66.64375 33.753124L68.3625 33.971874Q68.08125 35.76875 66.90938 36.784374Q65.75313 37.784374 64.05 37.784374Q61.925 37.784374 60.628124 36.39375Q59.33125 35.003124 59.33125 32.409374Q59.33125 30.721874 59.878124 29.471874Q60.440624 28.20625 61.58125 27.58125Q62.721874 26.940624 64.06563 26.940624Q65.75313 26.940624 66.81563 27.8Q67.89375 28.659374 68.20625 30.221874L66.4875 30.4875Q66.25313 29.440624 65.62813 28.925Q65.00313 28.39375 64.12813 28.39375Q62.8 28.39375 61.971874 29.346874Q61.14375 30.3 61.14375 32.346874Q61.14375 34.440624 61.940624 35.39375Q62.7375 36.33125 64.03438 36.33125Q65.06563 36.33125 65.75313 35.70625Q66.45625 35.065624 66.64375 33.753124ZM76.64375 36.26875Q75.65938 37.096874 74.75313 37.440624Q73.84688 37.784374 72.81563 37.784374Q71.1125 37.784374 70.19063 36.95625Q69.26875 36.1125 69.26875 34.815624Q69.26875 34.05 69.6125 33.425Q69.97188 32.8 70.53438 32.425Q71.09688 32.034374 71.8 31.83125Q72.31563 31.70625 73.3625 31.565624Q75.4875 31.315624 76.4875 30.971874Q76.50313 30.6125 76.50313 30.503124Q76.50313 29.440624 76.00313 28.9875Q75.33125 28.39375 74.00313 28.39375Q72.75313 28.39375 72.15938 28.83125Q71.58125 29.26875 71.3 30.378124L69.58125 30.14375Q69.81563 29.034374 70.34688 28.3625Q70.87813 27.675 71.89375 27.315624Q72.90938 26.940624 74.25313 26.940624Q75.58125 26.940624 76.40938 27.253124Q77.2375 27.565624 77.62813 28.05Q78.01875 28.51875 78.175 29.2375Q78.26875 29.690624 78.26875 30.8625L78.26875 33.20625Q78.26875 35.659374 78.37813 36.315624Q78.4875 36.95625 78.83125 37.55L76.9875 37.55Q76.72188 37.003124 76.64375 36.26875ZM76.4875 32.346874Q75.53438 32.7375 73.6125 33.003124Q72.53438 33.159374 72.08125 33.3625Q71.64375 33.55 71.39375 33.925Q71.14375 34.3 71.14375 34.76875Q71.14375 35.471874 71.675 35.940624Q72.20625 36.409374 73.2375 36.409374Q74.25313 36.409374 75.03438 35.971874Q75.83125 35.51875 76.20625 34.753124Q76.4875 34.14375 76.4875 32.9875L76.4875 32.346874ZM84.70625 35.971874L84.95625 37.534374Q84.22188 37.690624 83.62813 37.690624Q82.675 37.690624 82.14375 37.39375Q81.62813 37.08125 81.40938 36.596874Q81.19063 36.096874 81.19063 34.51875L81.19063 28.55L79.90938 28.55L79.90938 27.175L81.19063 27.175L81.19063 24.6125L82.94063 23.55L82.94063 27.175L84.70625 27.175L84.70625 28.55L82.94063 28.55L82.94063 34.6125Q82.94063 35.3625 83.03438 35.58125Q83.12813 35.784374 83.33125 35.925Q83.55 36.05 83.94063 36.05Q84.22188 36.05 84.70625 35.971874ZM93.97188 34.20625L95.78438 34.440624Q95.3625 36.01875 94.19063 36.909374Q93.03438 37.784374 91.22188 37.784374Q88.95625 37.784374 87.6125 36.39375Q86.28438 34.9875 86.28438 32.45625Q86.28438 29.83125 87.62813 28.39375Q88.97188 26.940624 91.12813 26.940624Q93.20625 26.940624 94.51875 28.3625Q95.84688 29.76875 95.84688 32.346874Q95.84688 32.503124 95.83125 32.815624L88.09688 32.815624Q88.19063 34.51875 89.06563 35.425Q89.94063 36.33125 91.2375 36.33125Q92.20625 36.33125 92.87813 35.83125Q93.56563 35.315624 93.97188 34.20625ZM88.19063 31.3625L93.9875 31.3625Q93.87813 30.065624 93.33125 29.409374Q92.4875 28.39375 91.14375 28.39375Q89.94063 28.39375 89.1125 29.20625Q88.28438 30.003124 88.19063 31.3625ZM104.59688 37.55L104.59688 36.2375Q103.6125 37.784374 101.69063 37.784374Q100.45625 37.784374 99.40938 37.096874Q98.37813 36.409374 97.8 35.190624Q97.2375 33.971874 97.2375 32.378124Q97.2375 30.815624 97.75313 29.55Q98.26875 28.284374 99.3 27.6125Q100.34688 26.940624 101.6125 26.940624Q102.55 26.940624 103.28438 27.346874Q104.01875 27.7375 104.4875 28.3625L104.4875 23.2375L106.22188 23.2375L106.22188 37.55L104.59688 37.55ZM99.03438 32.378124Q99.03438 34.3625 99.87813 35.346874Q100.72188 36.33125 101.8625 36.33125Q103.01875 36.33125 103.81563 35.39375Q104.62813 34.45625 104.62813 32.51875Q104.62813 30.39375 103.8 29.39375Q102.9875 28.39375 101.78438 28.39375Q100.6125 28.39375 99.81563 29.3625Q99.03438 30.315624 99.03438 32.378124ZM118.70625 35.971874L118.95625 37.534374Q118.22188 37.690624 117.62813 37.690624Q116.675 37.690624 116.14375 37.39375Q115.62813 37.08125 115.40938 36.596874Q115.19063 36.096874 115.19063 34.51875L115.19063 28.55L113.90938 28.55L113.90938 27.175L115.19063 27.175L115.19063 24.6125L116.94063 23.55L116.94063 27.175L118.70625 27.175L118.70625 28.55L116.94063 28.55L116.94063 34.6125Q116.94063 35.3625 117.03438 35.58125Q117.12813 35.784374 117.33125 35.925Q117.55 36.05 117.94063 36.05Q118.22188 36.05 118.70625 35.971874ZM120.8625 37.55L120.8625 23.2375L122.62813 23.2375L122.62813 28.3625Q123.8625 26.940624 125.7375 26.940624Q126.87813 26.940624 127.72188 27.39375Q128.58125 27.846874 128.94063 28.659374Q129.31563 29.45625 129.31563 30.971874L129.31563 37.55L127.56563 37.55L127.56563 30.971874Q127.56563 29.659374 126.9875 29.065624Q126.40938 28.45625 125.37813 28.45625Q124.59688 28.45625 123.89375 28.8625Q123.20625 29.26875 122.90938 29.971874Q122.62813 30.659374 122.62813 31.878124L122.62813 37.55L120.8625 37.55ZM130.84688 37.55L130.84688 27.175L132.425 27.175L132.425 28.753124Q133.03438 27.64375 133.55 27.3Q134.06563 26.940624 134.675 26.940624Q135.56563 26.940624 136.4875 27.503124L135.87813 29.14375Q135.2375 28.753124 134.59688 28.753124Q134.01875 28.753124 133.55 29.1125Q133.09688 29.45625 132.89375 30.065624Q132.6125 31.003124 132.6125 32.1125L132.6125 37.55L130.84688 37.55ZM144.97188 34.20625L146.78438 34.440624Q146.3625 36.01875 145.19063 36.909374Q144.03438 37.784374 142.22188 37.784374Q139.95625 37.784374 138.6125 36.39375Q137.28438 34.9875 137.28438 32.45625Q137.28438 29.83125 138.62813 28.39375Q139.97188 26.940624 142.12813 26.940624Q144.20625 26.940624 145.51875 28.3625Q146.84688 29.76875 146.84688 32.346874Q146.84688 32.503124 146.83125 32.815624L139.09688 32.815624Q139.19063 34.51875 140.06563 35.425Q140.94063 36.33125 142.2375 36.33125Q143.20625 36.33125 143.87813 35.83125Q144.56563 35.315624 144.97188 34.20625ZM139.19063 31.3625L144.9875 31.3625Q144.87813 30.065624 144.33125 29.409374Q143.4875 28.39375 142.14375 28.39375Q140.94063 28.39375 140.1125 29.20625Q139.28438 30.003124 139.19063 31.3625ZM155.64375 36.26875Q154.65938 37.096874 153.75313 37.440624Q152.84688 37.784374 151.81563 37.784374Q150.1125 37.784374 149.19063 36.95625Q148.26875 36.1125 148.26875 34.815624Q148.26875 34.05 148.6125 33.425Q148.97188 32.8 149.53438 32.425Q150.09688 32.034374 150.8 31.83125Q151.31563 31.70625 152.3625 31.565624Q154.4875 31.315624 155.4875 30.971874Q155.50313 30.6125 155.50313 30.503124Q155.50313 29.440624 155.00313 28.9875Q154.33125 28.39375 153.00313 28.39375Q151.75313 28.39375 151.15938 28.83125Q150.58125 29.26875 150.3 30.378124L148.58125 30.14375Q148.81563 29.034374 149.34688 28.3625Q149.87813 27.675 150.89375 27.315624Q151.90938 26.940624 153.25313 26.940624Q154.58125 26.940624 155.40938 27.253124Q156.2375 27.565624 156.62813 28.05Q157.01875 28.51875 157.175 29.2375Q157.26875 29.690624 157.26875 30.8625L157.26875 33.20625Q157.26875 35.659374 157.37813 36.315624Q157.4875 36.95625 157.83125 37.55L155.9875 37.55Q155.72188 37.003124 155.64375 36.26875ZM155.4875 32.346874Q154.53438 32.7375 152.6125 33.003124Q151.53438 33.159374 151.08125 33.3625Q150.64375 33.55 150.39375 33.925Q150.14375 34.3 150.14375 34.76875Q150.14375 35.471874 150.675 35.940624Q151.20625 36.409374 152.2375 36.409374Q153.25313 36.409374 154.03438 35.971874Q154.83125 35.51875 155.20625 34.753124Q155.4875 34.14375 155.4875 32.9875L155.4875 32.346874ZM166.59688 37.55L166.59688 36.2375Q165.6125 37.784374 163.69063 37.784374Q162.45625 37.784374 161.40938 37.096874Q160.37813 36.409374 159.8 35.190624Q159.2375 33.971874 159.2375 32.378124Q159.2375 30.815624 159.75313 29.55Q160.26875 28.284374 161.3 27.6125Q162.34688 26.940624 163.6125 26.940624Q164.55 26.940624 165.28438 27.346874Q166.01875 27.7375 166.4875 28.3625L166.4875 23.2375L168.22188 23.2375L168.22188 37.55L166.59688 37.55ZM161.03438 32.378124Q161.03438 34.3625 161.87813 35.346874Q162.72188 36.33125 163.8625 36.33125Q165.01875 36.33125 165.81563 35.39375Q166.62813 34.45625 166.62813 32.51875Q166.62813 30.39375 165.8 29.39375Q164.9875 28.39375 163.78438 28.39375Q162.6125 28.39375 161.81563 29.3625Q161.03438 30.315624 161.03438 32.378124ZM170.15938 34.45625L171.90938 34.175Q172.05 35.221874 172.72188 35.784374Q173.39375 36.33125 174.59688 36.33125Q175.8 36.33125 176.37813 35.846874Q176.97188 35.346874 176.97188 34.690624Q176.97188 34.096874 176.45625 33.753124Q176.09688 33.51875 174.65938 33.159374Q172.72188 32.659374 171.97188 32.315624Q171.2375 31.95625 170.84688 31.33125Q170.45625 30.690624 170.45625 29.925Q170.45625 29.2375 170.76875 28.64375Q171.09688 28.05 171.64375 27.659374Q172.05 27.3625 172.75313 27.159374Q173.47188 26.940624 174.28438 26.940624Q175.50313 26.940624 176.425 27.3Q177.34688 27.64375 177.78438 28.253124Q178.22188 28.846874 178.39375 29.846874L176.675 30.08125Q176.55 29.284374 175.9875 28.846874Q175.425 28.39375 174.40938 28.39375Q173.19063 28.39375 172.675 28.8Q172.15938 29.190624 172.15938 29.721874Q172.15938 30.065624 172.37813 30.346874Q172.58125 30.628124 173.05 30.815624Q173.31563 30.909374 174.59688 31.253124Q176.47188 31.753124 177.20625 32.08125Q177.94063 32.39375 178.3625 33.003124Q178.78438 33.596874 178.78438 34.503124Q178.78438 35.378124 178.26875 36.159374Q177.75313 36.940624 176.78438 37.3625Q175.81563 37.784374 174.59688 37.784374Q172.58125 37.784374 171.51875 36.940624Q170.45625 36.096874 170.15938 34.45625Z" fill-rule="nonzero"/></svg>